<svg width="232" height="149" viewBox="0 0 232 149" fill="none" xmlns="http://www.w3.org/2000/svg">
<g clip-path="url(#clip0)">
<path d="M229.067 131.791C229.353 139.965 203.17 147.638 170.548 148.785C137.927 150.004 111.243 144.339 110.957 136.165C110.67 127.991 136.854 120.319 169.475 119.171C202.025 117.952 228.709 123.617 229.067 131.791Z" fill="#EAEAEA"/>
<path d="M232 119.817C232 129.21 180.063 136.81 115.964 136.81C51.9371 136.81 0 129.21 0 119.817C0 110.423 51.9371 102.823 116.036 102.823C180.063 102.823 232 110.423 232 119.817Z" fill="#EAEAEA"/>
<path d="M169.976 94.0034L62.5248 91.4937L27.8286 95.7243V113.148L96.3626 128.636L169.976 107.699V107.34V94.0034Z" fill="white"/>
<path d="M99.9396 113.865V127.919L28.9016 113.435C28.9016 113.435 25.0385 98.6641 30.1893 96.2262C35.4117 93.7883 99.9396 113.865 99.9396 113.865Z" fill="#C6D2DB"/>
<path d="M171.049 90.8484L157.814 93.9317L104.518 83.6064L42.9948 95.6525L28.9017 92.7844V98.3773L99.9396 113.865L171.049 96.513V90.8484Z" fill="#2A95F5"/>
<path d="M171.049 90.8484L99.9396 108.201L28.9017 92.7844L104.518 77.9418L171.049 90.8484Z" fill="#45C0FF"/>
<path d="M165.684 108.344C165.684 108.344 100.154 125.84 99.1527 125.84C98.2942 125.84 41.7071 114.367 30.7617 112.288C28.544 106.982 30.9763 98.449 30.9763 98.449L30.2609 96.2979C31.6917 94.2902 28.9732 92.8561 28.9732 92.8561C28.9732 92.8561 27.1132 92.2108 25.8255 97.732C25.3963 99.5246 25.2532 102.034 25.2532 104.544C25.2532 104.616 25.3963 113.077 26.7555 115.084L98.7234 131.791L171.55 110.925V106.767L165.684 108.344Z" fill="#2A95F5"/>
<path d="M34.6963 105.763C34.6963 105.763 32.9794 121.538 33.8378 121.394C34.6963 121.251 38.6309 117.881 38.6309 117.881C38.6309 117.881 43.7102 124.836 43.7102 123.975C43.7102 123.115 45.5702 108.129 45.5702 108.129L34.6963 105.763Z" fill="#F54F91"/>
<path d="M64.4564 88.1954C65.458 88.5539 104.876 80.7382 104.876 80.7382L139.357 87.1915L64.4564 88.1954Z" fill="#2A95F5"/>
<path d="M56.7302 95.7243L100.87 102.536L141.647 93.7166L56.7302 95.7243Z" fill="#2A95F5"/>
<path d="M22.8924 73.5679L130.415 71.1299L165.111 75.3604V92.7844L96.5773 108.272L22.9639 87.3349L22.8924 86.9764V73.5679Z" fill="#C6D2DB"/>
<path d="M92.9288 93.4297V107.555L163.967 93.0712C163.967 93.0712 167.83 78.3003 162.679 75.8624C157.457 73.4244 92.9288 93.4297 92.9288 93.4297Z" fill="white"/>
<path d="M21.8909 70.4846L35.1255 73.5679L88.4219 63.2425L149.945 75.2887L163.967 72.3489V78.0135L92.9288 93.4297L21.8909 76.1492V70.4846Z" fill="#D71D5C"/>
<path d="M21.8909 70.4846L92.9288 87.8369L163.967 72.3489L88.4219 57.578L21.8909 70.4846Z" fill="#F75392"/>
<path d="M27.2563 87.9086C27.2563 87.9086 92.7857 105.404 93.7873 105.404C94.6457 105.404 151.233 93.9317 162.178 91.8523C164.396 86.5462 161.964 78.0135 161.964 78.0135L162.679 75.8624C161.248 73.8547 163.967 72.4206 163.967 72.4206C163.967 72.4206 165.827 71.7753 167.114 77.2964C167.544 79.089 167.687 81.5987 167.687 84.1083C167.687 84.18 167.544 92.641 166.184 94.6487L94.2165 111.427L21.3185 90.5616V86.4028L27.2563 87.9086Z" fill="#D71D5C"/>
<path d="M122.188 68.9071L76.5464 78.8022L92.9287 82.8176L140.502 72.4923L122.188 68.9071Z" fill="#FE84AB"/>
<path d="M99.1527 28.6814L46.5002 34.9913V68.7637C46.5002 68.7637 61.1656 79.0173 99.1527 79.0173C137.14 79.0173 151.805 68.7637 151.805 68.7637V34.9913L99.1527 28.6814Z" fill="#29C6F9"/>
<path d="M134.278 32.8402C134.278 53.1323 118.897 70.1261 98.7234 71.9904C93.6442 72.4923 87.9211 72.7791 81.6257 72.7791C66.8887 72.7791 55.7287 71.2733 47.5017 69.3373C51.3648 71.5602 66.8172 78.9456 99.1527 78.9456C137.14 78.9456 151.805 68.692 151.805 68.692V34.9913L134.278 32.8402Z" fill="#09B5EC"/>
<path d="M99.1527 6.88354L14.0931 28.6814V31.4779L99.1527 53.2758L184.141 31.4779V28.6814L99.1527 6.88354Z" fill="#03A1D5"/>
<path d="M99.1527 6.88354L14.0931 28.6814L99.1527 50.4793L184.141 28.6814L99.1527 6.88354Z" fill="#29C6F9"/>
<path d="M73.1841 43.8109L107.022 8.89124L99.1526 6.88354L14.0931 28.6814L73.1841 43.8109Z" fill="#4AD3FF"/>
<path d="M163.108 74.2132H162.25C162.25 74.1415 162.393 70.4846 162.25 64.5332C162.25 62.5972 162.178 61.8085 162.107 61.0914C161.964 59.5857 161.892 58.5101 162.25 48.8301C162.25 48.2565 162.321 47.6829 162.321 47.0375C162.536 43.2372 162.751 38.5765 159.961 36.1386C157.814 34.2743 154.738 34.2026 151.734 34.1309C150.589 34.1309 149.444 34.0592 148.371 33.9158C142.934 33.2705 137.426 32.6251 132.132 32.0515L128.197 31.6213C115.177 30.1872 104.017 29.1116 103.874 29.1116L103.946 28.2512C104.089 28.2512 115.249 29.3985 128.269 30.7608L132.204 31.1911C137.569 31.7647 143.077 32.3383 148.443 33.0553C149.444 33.1987 150.518 33.1988 151.662 33.1988C154.81 33.2705 158.029 33.3422 160.461 35.4216C163.609 38.1463 163.323 43.0938 163.108 47.0375C163.108 47.6829 163.037 48.2565 163.037 48.8301C162.751 58.5101 162.822 59.514 162.894 61.0197C162.965 61.7368 163.037 62.5972 163.037 64.5332C163.251 70.4129 163.108 74.1415 163.108 74.2132Z" fill="#FFC501"/>
<path d="M104.876 28.6814C104.876 30.1155 102.3 31.191 99.1527 31.191C96.005 31.191 93.4296 30.0438 93.4296 28.6814C93.4296 27.2474 96.005 26.1718 99.1527 26.1718C102.3 26.1001 104.876 27.2474 104.876 28.6814Z" fill="#1D4A69"/>
<path d="M165.469 70.4846C165.469 72.0621 164.181 73.3527 162.608 73.3527C161.034 73.3527 159.746 72.0621 159.746 70.4846C159.746 68.9071 161.034 67.6165 162.608 67.6165C164.181 67.6165 165.469 68.9071 165.469 70.4846Z" fill="#FFC501"/>
<path d="M162.608 72.0621C160.318 72.0621 159.889 71.6319 159.889 71.6319V73.9981H165.254V71.6319C165.326 71.6319 164.897 72.0621 162.608 72.0621Z" fill="#FD8703"/>
<path d="M166.542 74.7868C165.612 73.5679 164.181 72.8508 162.679 72.8508C160.962 72.8508 159.388 73.783 158.53 75.217C156.384 78.8022 158.101 84.2517 160.39 87.3349C160.533 87.5501 160.676 87.6935 160.819 87.9086C160.819 87.9803 160.891 87.9803 160.891 88.052C160.962 88.1954 161.105 88.3388 161.177 88.4822C161.177 88.5539 161.248 88.5539 161.248 88.6256C161.32 88.769 161.463 88.9841 161.534 89.1275V89.1992C161.606 89.4143 161.749 89.5578 161.821 89.7729C162.178 90.4899 162.464 91.2069 162.679 91.8523C164.038 90.705 164.968 89.1275 165.898 87.5501C166.828 85.9009 167.615 84.18 167.901 82.3157C168.76 77.2964 166.542 74.7868 166.542 74.7868Z" fill="#FFC501"/>
<path d="M161.177 73.7113C161.177 73.7113 161.034 73.8547 160.819 74.1415C160.604 74.4283 160.318 74.8585 160.032 75.4321C159.889 75.719 159.746 76.0058 159.603 76.2926C159.531 76.436 159.46 76.6511 159.388 76.7945C159.317 76.9379 159.245 77.153 159.245 77.3681C159.174 77.5832 159.174 77.7267 159.102 77.9418C159.102 78.1569 159.031 78.3003 159.031 78.5154L158.959 78.8022V79.089V79.6627C158.959 80.0929 159.031 80.4514 159.102 80.8816C159.174 81.2401 159.245 81.6704 159.388 82.0289C159.531 82.3874 159.674 82.7459 159.746 83.1044C159.889 83.3912 160.032 83.7498 160.175 84.0366C160.247 84.18 160.318 84.3234 160.39 84.4668C160.461 84.6102 160.533 84.6819 160.604 84.8253C160.747 85.0404 160.819 85.2555 160.962 85.3989C161.177 85.6858 161.248 85.9009 161.248 85.9009C161.248 85.9009 161.105 85.7575 160.891 85.4706C160.747 85.3272 160.676 85.1838 160.461 84.9687C160.39 84.897 160.318 84.7536 160.247 84.6102C160.175 84.4668 160.104 84.3234 160.032 84.2517C159.889 83.9649 159.674 83.6781 159.531 83.3912C159.388 83.0327 159.245 82.6742 159.102 82.3157C158.959 81.9572 158.887 81.5269 158.744 81.0967C158.673 80.6665 158.601 80.2363 158.601 79.8061V79.1607V78.8739L158.673 78.5871C158.673 78.372 158.744 78.1569 158.744 77.9418C158.816 77.7267 158.887 77.5115 158.887 77.3681C158.959 77.153 159.031 77.0096 159.102 76.7945C159.174 76.6511 159.245 76.436 159.317 76.2926C159.46 76.0058 159.674 75.6472 159.817 75.4321C159.961 75.1453 160.175 74.9302 160.318 74.7151C160.461 74.5 160.604 74.3566 160.747 74.2132C160.962 73.8547 161.177 73.7113 161.177 73.7113Z" fill="#FF8C03"/>
<path d="M162.107 73.7113C162.107 73.7113 162.035 73.9264 161.964 74.2849C161.892 74.5 161.892 74.7151 161.821 75.0019C161.749 75.2887 161.749 75.5756 161.678 75.8624C161.606 76.5077 161.463 77.2964 161.391 78.0852C161.32 78.5154 161.32 78.9456 161.32 79.3758C161.248 79.8061 161.32 80.2363 161.32 80.6665C161.32 81.0967 161.32 81.5269 161.32 81.9572C161.391 82.3874 161.391 82.8176 161.463 83.1761C161.534 83.6063 161.606 83.9649 161.678 84.3234C161.749 84.6819 161.821 85.0404 161.964 85.3272C162.107 85.614 162.178 85.9009 162.25 86.1877C162.321 86.4745 162.464 86.6179 162.536 86.833C162.679 87.1915 162.822 87.4066 162.822 87.4066C162.822 87.4066 162.679 87.1915 162.464 86.9047C162.393 86.7613 162.178 86.5462 162.107 86.3311C161.964 86.116 161.821 85.8292 161.749 85.4706C161.606 85.1838 161.534 84.8253 161.391 84.4668C161.248 84.1083 161.177 83.6781 161.105 83.3195C161.034 82.8893 160.962 82.4591 160.962 82.0289C160.962 81.5986 160.891 81.1684 160.891 80.6665C160.891 80.2363 160.891 79.8061 160.962 79.3041C160.962 78.8739 161.034 78.4437 161.105 78.0135C161.177 77.5833 161.248 77.2247 161.32 76.7945C161.391 76.436 161.463 76.0775 161.534 75.719C161.678 75.0736 161.821 74.5717 161.964 74.1415C162.035 73.9264 162.107 73.7113 162.107 73.7113Z" fill="#FF8C03"/>
<path d="M162.822 75.2887C162.822 75.2887 162.894 75.5039 162.965 75.8624C163.037 76.2209 163.18 76.7228 163.323 77.3681C163.394 77.655 163.466 78.0135 163.537 78.372C163.609 78.7305 163.68 79.089 163.68 79.5193C163.752 80.308 163.824 81.1684 163.895 82.0289C163.895 82.4591 163.895 82.8893 163.895 83.3195C163.895 83.7498 163.895 84.18 163.824 84.5385C163.824 84.9687 163.752 85.3272 163.752 85.6858C163.752 86.0443 163.68 86.4028 163.609 86.6896C163.537 87.3349 163.394 87.8369 163.323 88.1954C163.251 88.5539 163.18 88.769 163.18 88.769C163.18 88.769 163.18 88.5539 163.251 88.1954C163.251 87.9803 163.251 87.7652 163.323 87.55C163.323 87.2632 163.323 86.9764 163.394 86.6896C163.394 86.4028 163.466 86.0443 163.466 85.6858C163.466 85.3272 163.466 84.9687 163.466 84.5385C163.466 84.1083 163.466 83.7498 163.466 83.3195C163.466 82.8893 163.466 82.4591 163.466 82.0289C163.466 81.1684 163.394 80.308 163.323 79.5193C163.251 78.7305 163.18 78.0135 163.108 77.3681C163.037 76.7228 162.965 76.2209 162.894 75.8624C162.894 75.5039 162.822 75.2887 162.822 75.2887Z" fill="#FF8C03"/>
<path d="M163.251 73.5678C163.251 73.5678 163.394 73.7113 163.538 74.0698C163.681 74.3566 163.967 74.8585 164.181 75.4321C164.396 76.0058 164.611 76.6511 164.825 77.3681C164.897 77.7267 165.04 78.0852 165.111 78.5154C165.183 78.8739 165.254 79.3041 165.326 79.7343C165.398 80.1646 165.398 80.5231 165.469 80.9533C165.541 81.3835 165.469 81.742 165.469 82.1006C165.469 82.4591 165.469 82.8176 165.398 83.1761C165.398 83.3195 165.398 83.5346 165.326 83.678C165.326 83.8215 165.254 83.9649 165.254 84.18C165.183 84.4668 165.183 84.7536 165.111 84.9687C165.04 85.1838 164.968 85.3989 164.968 85.614C164.897 85.9726 164.825 86.116 164.825 86.116C164.825 86.116 164.825 85.9009 164.897 85.5423C164.897 85.3989 164.968 85.1838 164.968 84.897C164.968 84.6819 165.04 84.3951 165.04 84.1083C165.04 83.9649 165.04 83.8215 165.111 83.678C165.111 83.5346 165.111 83.3195 165.111 83.1761C165.111 82.8176 165.111 82.4591 165.111 82.1006C165.111 81.742 165.111 81.3118 165.04 80.9533C165.04 80.5948 164.968 80.1646 164.897 79.8061C164.825 79.3758 164.754 79.0173 164.754 78.6588C164.682 78.3003 164.611 77.8701 164.539 77.5115C164.468 77.153 164.396 76.7945 164.253 76.436C164.181 76.0775 164.11 75.7907 163.967 75.5038C163.824 74.9302 163.609 74.4283 163.538 74.1415C163.323 73.783 163.251 73.5678 163.251 73.5678Z" fill="#FF8C03"/>
<path d="M165.469 75.2887C165.469 75.2887 165.827 76.0058 166.184 77.2247C166.256 77.5115 166.328 77.8701 166.399 78.2286C166.471 78.5871 166.542 78.9456 166.614 79.3041C166.685 79.6627 166.685 80.0929 166.757 80.5231C166.757 80.9533 166.757 81.3835 166.828 81.7421C166.828 82.1723 166.828 82.6025 166.757 82.961C166.685 83.3912 166.685 83.7498 166.542 84.18C166.471 84.5385 166.399 84.897 166.256 85.2555C166.113 85.614 166.041 85.9009 165.898 86.1877C165.755 86.4745 165.612 86.6896 165.541 86.9764C165.398 87.1915 165.254 87.3349 165.183 87.55C164.968 87.8369 164.825 87.9803 164.825 87.9803C164.825 87.9803 164.897 87.7652 165.111 87.4783C165.183 87.3349 165.326 87.1198 165.398 86.9047C165.469 86.6896 165.612 86.4028 165.684 86.116C165.827 85.8292 165.898 85.5423 165.97 85.1838C166.113 84.8253 166.113 84.4668 166.184 84.1083C166.256 83.7498 166.256 83.3195 166.328 82.961C166.399 82.6025 166.399 82.1723 166.399 81.7421C166.399 81.3118 166.399 80.9533 166.399 80.5231C166.328 80.0929 166.328 79.7344 166.328 79.3758C166.256 79.0173 166.256 78.6588 166.184 78.3003C166.113 77.9418 166.041 77.655 166.041 77.2964C165.898 76.7228 165.827 76.2209 165.684 75.8624C165.541 75.5039 165.469 75.2887 165.469 75.2887Z" fill="#FF8C03"/>
<path d="M209.179 143.049C209.179 143.049 198.019 140.467 192.224 133.154C186.43 125.84 178.346 123.115 178.346 123.115L182.71 121.179C183.64 120.749 186.573 122.183 187.431 122.47C192.224 124.334 195.873 128.349 200.666 130.357C204.243 131.791 209.465 134.086 213.4 132.938C213.4 132.867 214.401 140.109 209.179 143.049Z" fill="#CE4538"/>
<path d="M189.578 141.041C189.578 141.041 189.506 132.006 184.928 126.342C180.278 120.677 179.562 114.009 179.562 114.009L177.344 117.02C176.844 117.666 177.416 120.175 177.559 120.892C178.203 124.908 180.635 128.349 181.351 132.436C181.851 135.448 182.71 139.822 181.136 142.69C181.136 142.547 186.43 144.554 189.578 141.041Z" fill="#CE4538"/>
<path d="M117.395 124.262C117.395 124.262 120.185 132.938 128.698 144.626C128.555 144.196 144.794 136.237 146.01 135.591C155.525 130.716 165.183 126.628 175.413 123.832C178.99 122.828 182.638 121.968 186.215 120.964C189.721 119.96 193.298 118.956 196.875 118.096C206.103 115.801 221.555 115.084 221.555 115.084L215.761 110.782L137.927 121.251L129.127 109.778L117.395 124.262Z" fill="#DBDBDB"/>
<path d="M217.978 96.4413C215.904 95.2223 213.972 95.0072 213.972 95.0072C213.972 95.0072 179.276 100.098 165.684 101.819C152.091 103.54 121.473 105.619 121.473 105.619L128.555 135.95C131.774 134.301 167.901 123.689 178.775 120.319C189.649 117.02 218.479 111.212 218.479 111.212C219.266 110.639 219.838 109.993 220.196 109.205C222.771 104.759 222.271 99.0226 217.978 96.4413Z" fill="#F4F4F4"/>
<path d="M221.698 105.046C221.412 105.404 221.055 105.763 220.625 106.05C220.625 106.05 190.364 112.073 178.918 115.514C168.331 118.669 135.065 128.421 127.482 131.218L128.627 135.95C131.846 134.301 167.973 123.689 178.847 120.319C189.721 117.02 218.551 111.212 218.551 111.212C219.338 110.639 219.91 109.993 220.268 109.205C221.055 107.914 221.484 106.48 221.698 105.046Z" fill="#EDEDED"/>
<path d="M128.34 136.022C125.336 136.882 119.04 130.931 116.966 122.541C114.891 114.152 117.753 106.551 120.757 105.691C123.762 104.831 127.983 110.997 130.057 119.315C132.132 127.632 131.345 135.233 128.34 136.022Z" fill="#C5C9C9"/>
<path d="M130.987 124.477C130.844 124.549 130.701 124.549 130.558 124.549C128.483 124.549 126.767 118.239 126.767 118.239L128.698 115.084C127.983 113.148 127.124 111.427 126.266 109.993H126.194C126.194 109.993 122.975 110.997 122.403 116.375C122.331 117.235 122.331 118.167 122.474 118.956C122.474 118.956 122.832 121.968 124.406 124.764C126.981 129.855 129.843 130.07 131.13 129.855C131.274 128.278 131.202 126.485 130.987 124.477Z" fill="#BABDBD"/>
<path d="M130.558 124.549C130.701 124.549 130.844 124.549 130.987 124.477C130.773 122.828 130.487 121.107 130.057 119.386C129.7 117.881 129.27 116.447 128.77 115.084L126.838 118.239C126.767 118.239 128.483 124.549 130.558 124.549Z" fill="#A8ABAB"/>
<path d="M178.489 99.8831C175.198 99.3812 171.979 100.959 171.979 100.959C171.979 100.959 183.497 108.416 178.274 123.043C181.494 123.33 184.999 121.251 184.999 121.251C190.221 106.695 178.489 99.8831 178.489 99.8831Z" fill="#E54C3C"/>
<path d="M127.267 6.88354C128.627 7.67228 129.843 8.67613 130.916 9.75169C131.488 10.3253 131.989 10.8989 132.49 11.5443C132.99 12.1896 133.491 12.8349 133.92 13.4803C134.35 14.1256 134.779 14.8426 135.137 15.5597C135.494 16.2767 135.852 17.0654 136.138 17.7825C136.71 19.2883 137.211 20.9374 137.497 22.5149L132.847 20.7223C135.78 17.424 139.071 14.4841 142.648 11.9028C146.225 9.32146 150.017 7.09865 154.023 5.23436C158.029 3.37007 162.25 2.0077 166.542 1.07555C168.688 0.573629 170.834 0.286815 173.052 0.0717044C175.198 -0.143406 177.416 -0.143406 179.634 8.79169e-07C177.631 0.932147 175.699 1.79259 173.767 2.72474C171.836 3.58518 169.904 4.51733 168.044 5.37777C164.324 7.17036 160.604 9.03465 157.099 11.1141C153.522 13.1218 150.088 15.2729 146.654 17.5674C143.292 19.8619 139.93 22.2998 136.71 24.8094L132.132 28.3946L132.06 23.0886C132.06 21.7262 131.989 20.3638 131.774 19.0014C131.703 18.3561 131.56 17.6391 131.417 16.9937C131.274 16.2767 131.13 15.6314 130.916 14.986C130.558 13.6237 130.057 12.2613 129.413 10.9706C128.698 9.53658 127.983 8.17421 127.267 6.88354Z" fill="#1AE51A"/>
</g>
<defs>
<clipPath id="clip0">
<rect width="232" height="149" fill="white"/>
</clipPath>
</defs>
</svg>
