<svg width="315" height="141" viewBox="0 0 315 141" fill="none" xmlns="http://www.w3.org/2000/svg">
<g clip-path="url(#clip0)">
<path d="M9.17473 140.66C9.17473 140.66 -13.6851 91.2661 12.7524 60.4745C34.4928 35.1626 64.0361 30.188 86.9837 45.4301C96.7619 51.92 124.055 50.3826 156.946 19.4922C199.659 -20.6225 306.736 1.61466 286.061 81.8111C276.052 120.619 318.907 101.94 298.286 140.726L9.17473 140.66Z" fill="#EBF3FA"/>
<path d="M314.649 141H2.56806C2.37052 141 2.21687 140.835 2.21687 140.649V140.528C2.21687 140.33 2.38149 140.176 2.56806 140.176H314.66C314.857 140.176 315.011 140.341 315.011 140.528V140.649C315 140.835 314.846 141 314.649 141Z" fill="#2E3552"/>
<path d="M44.4575 83.0187L43.404 94.4722L44.9624 94.7138L49.3631 84.5231L44.4575 83.0187Z" fill="#FFB27D"/>
<path d="M45.1709 93.5278C45.1709 93.5278 44.8087 94.7248 45.0392 95.6143C45.1928 96.2073 44.26 97.0308 43.2394 98.1619C43.1406 98.2717 42.9431 98.1619 42.965 98.0082C42.976 97.9313 42.998 97.8325 43.0528 97.7227C43.2394 97.2944 43.7662 96.5477 43.7662 96.5477C43.7223 96.383 42.6358 96.965 42.0212 97.3713C41.6591 97.6128 40.6275 98.7219 40.3531 98.5572C40.0788 98.3925 40.5177 97.3164 41.0006 96.5257C41.4835 95.7351 43.1955 95.0652 43.415 94.4612C43.6235 93.8573 45.1709 93.5278 45.1709 93.5278Z" fill="#FFB27D"/>
<path d="M50.1972 41.4874L61.5887 36.6227L72.0913 41.6411L61.5887 46.9671L50.1972 41.4874Z" fill="#11ACDE"/>
<path d="M52.0409 47.0769L52.2056 46.8573C49.9119 45.1332 50.3619 42.2451 50.4936 41.5862C50.5155 41.4984 50.4716 41.4105 50.4058 41.3666C50.3399 41.3117 50.2411 41.3556 50.2192 41.4435C50.0656 42.2012 49.6376 45.2759 52.0409 47.0769Z" fill="#EFCBAB"/>
<path d="M52.1946 46.8573L52.5457 46.989L52.2494 47.3514L52.0409 47.0769L52.1946 46.8573Z" fill="#D8A987"/>
<path d="M52.5458 46.989C52.5458 46.989 52.9738 47.2965 53.1165 47.2086C53.1165 47.2086 52.9738 47.6149 52.7653 47.6589C52.7653 47.6589 52.3812 47.5271 52.2495 47.3624L52.5458 46.989Z" fill="#EFCBAB"/>
<path d="M57.5611 128.393L56.7819 131.644L55.7613 135.96H52.5567L52.3592 131.82L52.2165 128.635L57.5611 128.393Z" fill="#FFB27D"/>
<path d="M51.2837 140.703C51.2837 140.703 51.2837 139.133 51.5032 138.606C51.7227 138.079 52.5457 135.96 52.5457 135.96H55.7503C55.7503 135.96 56.3429 137.903 56.3868 138.529C56.4198 139.166 56.3868 140.693 56.3868 140.693H51.2837V140.703Z" fill="#11ACDE"/>
<path d="M71.6413 140.703C71.6413 140.703 71.6413 139.133 71.4218 138.606C71.2023 138.079 70.3792 135.96 70.3792 135.96H67.1637C67.1637 135.96 66.5711 137.903 66.5272 138.529C66.4943 139.166 66.5272 140.693 66.5272 140.693H71.6413V140.703Z" fill="#11ACDE"/>
<path d="M58.7902 52.5565C58.7902 52.5565 58.6805 56.0486 58.2305 57.6189L54.6858 65.2509L62.5215 76.1005L68.0088 62.0773L64.8262 57.6848C64.8262 57.6848 63.8714 52.9958 64.3652 51.2607C64.892 49.5367 58.7902 52.5565 58.7902 52.5565Z" fill="#FFB27D"/>
<path d="M58.7792 53.0397C58.7792 53.0397 59.8328 55.5764 61.8191 55.5215C63.8055 55.4666 64.2555 53.2154 64.2555 53.2154L58.7792 53.0397Z" fill="#ED985F"/>
<path d="M57.594 50.9862C57.594 50.9862 56.9575 47.7797 56.5075 46.8133C56.0576 45.847 55.6845 41.5203 60.6449 41.2897C60.6449 41.2897 62.5435 41.5093 63.586 40.8834C63.586 40.8834 63.586 41.5203 63.3227 41.74C63.3227 41.74 64.6176 40.9273 65.9565 42.4208C67.2954 43.9143 65.4846 49.5367 65.5944 50.7666L57.594 50.9862Z" fill="#132644"/>
<path d="M61.5887 54.5442C60.151 54.5222 57.5062 52.6005 57.5062 50.2285V46.5278C57.5062 45.6603 58.1098 44.9575 58.8451 44.9575H64.3323C65.0676 44.9575 65.6712 45.6713 65.6712 46.5278V50.0199C65.6712 52.5016 63.2348 54.5771 61.5887 54.5442Z" fill="#FFB27D"/>
<path d="M57.5062 48.5044C57.5062 48.5044 57.5172 46.2752 59.2731 45.9348C61.029 45.5944 64.9798 47.022 65.5395 45.3967C66.0992 43.7715 57.9232 43.8044 57.5062 44.8367C57.0892 45.8689 57.5062 48.5044 57.5062 48.5044Z" fill="#132644"/>
<path d="M58.2305 57.6189L61.5119 58.3547L64.8261 57.553L65.6712 62.6374L61.9508 75.2989L57.8793 60.1227L58.2305 57.6189Z" fill="white"/>
<path d="M58.0769 58.6622L60.6778 60.6059L61.5338 59.2112L62.324 60.6059L65.1005 58.19L64.5518 57.564L61.5119 58.3547L58.2305 58.2119L58.0769 58.6622Z" fill="#D2E3FC"/>
<path d="M71.7181 86.2802L63.9153 86.7633C63.8714 86.6865 63.8165 86.6865 63.7616 86.7743L61.468 86.9171L51.6897 86.3131C51.6897 86.3131 49.2314 97.547 50.1972 112.525C50.5045 117.302 51.1959 131.446 51.8543 136.454L58.5597 136.52C59.4267 130.864 60.4364 116.742 60.9741 114.315C61.2155 113.217 61.446 112.119 61.6545 111.043C61.8521 112.273 61.9728 113.272 61.9728 113.898C61.9728 114.897 62.2581 116.479 62.6642 118.389C63.2239 121.08 64.892 133.467 65.3858 136.706H72.4205C72.5083 132.248 72.8924 117.105 72.9692 112.525C73.1667 100.314 71.7181 86.2802 71.7181 86.2802Z" fill="#EE9849"/>
<path d="M77.0956 125.758C73.507 127.636 49.0888 129.865 44.7099 124.704C43.9637 123.825 54.3675 58.3547 54.3675 58.3547C54.3675 58.3547 55.0369 58.157 56.1673 57.9484C56.7489 57.8386 57.4403 57.7287 58.2305 57.6299C58.2415 57.8715 59.9206 68.5014 62.2252 72.6523C62.2252 72.6523 64.8261 66.9311 64.8371 57.6848C64.8371 57.6409 64.8262 57.597 64.8262 57.553C65.32 57.6079 65.8139 57.6738 66.3187 57.7617C66.5272 57.7946 66.7467 57.8386 66.9552 57.8825C67.7563 58.0472 68.5684 58.2558 69.3696 58.5194C69.3696 58.5194 77.8419 125.374 77.0956 125.758Z" fill="#29C6F9"/>
<path d="M57.2099 57.7507C57.2099 57.7507 53.4676 86.4778 52.0409 88.6301C51.4373 89.5306 50.5594 89.6733 49.5278 89.4757C49.3302 89.4427 49.1217 89.3878 48.9242 89.3219L46.0598 88.2238H46.0489C45.5879 88.0371 45.116 87.8614 44.6441 87.7187C41.703 86.8072 41.9334 84.3254 42.7236 80.9432C43.5137 77.561 48.7047 61.2867 50.4606 60.1336C53.5444 58.1021 57.2099 57.7507 57.2099 57.7507Z" fill="#29C6F9"/>
<path d="M64.8261 57.564C62.3679 57.3005 60.0522 57.4213 58.2305 57.6409C58.2305 57.6299 58.2305 57.6299 58.2305 57.6299C58.2305 57.6299 64.3323 53.8414 64.8261 57.564Z" fill="#FFB27D"/>
<path d="M62.6752 75.3098C58.9 72.5315 56.1673 57.9484 56.1673 57.9484C56.749 57.8386 57.4404 57.7287 58.2305 57.6299C58.2415 57.8715 59.8328 67.9194 62.1265 72.0703C62.1265 72.0703 64.8262 66.9311 64.8371 57.6958C64.8371 57.6519 64.8262 57.608 64.8262 57.564C65.32 57.6189 65.8139 57.6848 66.3187 57.7727C66.5272 57.8056 66.7467 57.8495 66.9552 57.8935C66.9552 65.6682 62.6752 75.3098 62.6752 75.3098Z" fill="#BC3F3F"/>
<path d="M60.3156 51.7988C60.3156 51.7988 62.0386 51.6231 62.8398 51.8208C62.8398 51.8208 62.4118 52.5126 61.7094 52.5126C61.007 52.5016 60.4803 52.2381 60.3156 51.7988Z" fill="#FFF0E6"/>
<path d="M56.1564 43.1785L56.2551 44.8586C56.2551 44.8586 60.1181 42.278 66.4504 44.65L66.3626 42.2231C66.2748 41.7509 65.9785 41.3446 65.5615 41.103C64.3762 40.4222 61.5887 39.1484 57.1989 41.2787C56.5844 41.5643 56.2003 42.4977 56.1564 43.1785Z" fill="#29C6F9"/>
<path d="M58.5268 56.0815L57.2099 57.7507L60.6888 60.1336L61.5119 58.3547L58.5268 56.0815Z" fill="white"/>
<path d="M64.5627 56.0815L61.5118 58.3547L62.3898 60.1336L65.3858 57.6299L64.5627 56.0815Z" fill="white"/>
<path d="M61.4131 62.286C61.5119 62.1872 61.6545 62.1872 61.7533 62.286C61.8521 62.3848 61.8521 62.5276 61.7533 62.6264C61.6545 62.7253 61.5119 62.7253 61.4131 62.6264C61.3253 62.5386 61.3253 62.3848 61.4131 62.286Z" fill="#D2E3FC"/>
<path d="M61.5887 65.2839C61.722 65.2839 61.8301 65.1757 61.8301 65.0423C61.8301 64.9089 61.722 64.8007 61.5887 64.8007C61.4553 64.8007 61.3472 64.9089 61.3472 65.0423C61.3472 65.1757 61.4553 65.2839 61.5887 65.2839Z" fill="#D2E3FC"/>
<path d="M61.4131 67.535C61.5119 67.4362 61.6545 67.4362 61.7533 67.535C61.8521 67.6339 61.8521 67.7766 61.7533 67.8755C61.6545 67.9743 61.5119 67.9743 61.4131 67.8755C61.3253 67.7876 61.3253 67.6339 61.4131 67.535Z" fill="#D2E3FC"/>
<path d="M69.3696 58.5194C69.3696 58.5194 71.7181 59.4967 72.9692 62.3738C74.2203 65.2509 79.4331 73.1135 79.2795 76.7923C79.1259 80.471 78.4235 83.8203 74.9226 83.9301C72.5192 84.007 70.0719 81.657 70.0719 78.132C70.0829 74.618 69.3696 58.5194 69.3696 58.5194Z" fill="#29C6F9"/>
<path d="M76.8322 81.8766C76.7334 82.8649 76.3713 83.6666 75.4823 83.8972C72.6729 84.6 71.4328 81.8876 72.0254 79.2301C72.0473 79.1423 72.0693 79.0544 72.0912 78.9776C72.6948 77.0339 74.8458 76.7374 75.6469 76.6935C75.8335 76.6825 75.9433 76.6825 75.9433 76.6825C75.9433 76.6825 75.9542 76.7264 75.9872 76.8033C76.1847 77.3963 77.0078 79.9878 76.8322 81.8766Z" fill="#11ACDE"/>
<path d="M76.8322 81.8766C76.8322 81.8766 68.6453 78.1869 65.4078 73.9591C65.1664 73.6516 65.781 73.2673 65.781 73.2673L75.636 76.6935L75.9762 76.8142C76.1847 77.3963 77.0078 79.9878 76.8322 81.8766Z" fill="#FFB27D"/>
<path d="M67.1967 73.465H56.3868V87.7297H67.1967V73.465Z" fill="#FCECDB"/>
<path d="M60.8315 83.5128L59.6133 85.5444L60.3815 85.4346L60.7108 86.0495L61.7424 84.1827L60.8315 83.5128Z" fill="#932424"/>
<path d="M62.4447 83.3811L63.6519 85.4236L62.8837 85.3138L62.5545 85.9178L61.5229 84.0509L62.4447 83.3811Z" fill="#932424"/>
<path d="M60.4035 83.0626C60.5352 82.1731 61.018 81.8217 61.7533 81.7119C62.7191 81.5692 63.1032 82.3159 63.1032 83.0626C63.1032 83.8093 62.4996 84.4133 61.7533 84.4133C61.0071 84.4133 60.2828 83.7984 60.4035 83.0626Z" fill="#BC3F3F"/>
<path d="M61.7533 84.1388C61.4241 84.1388 61.0949 83.985 60.8863 83.7434C60.7108 83.5458 60.6339 83.2932 60.6778 83.0516C60.7766 82.4147 61.1058 82.0852 61.7423 81.9864C62.0387 81.9425 62.2911 81.9974 62.4776 82.1621C62.6971 82.3488 62.8288 82.6782 62.8288 83.0626C62.8288 83.6556 62.3459 84.1388 61.7533 84.1388ZM61.9289 82.0962C61.874 82.0962 61.8192 82.0962 61.7643 82.1072C61.1827 82.1951 60.8973 82.4806 60.7985 83.0736C60.7656 83.2822 60.8315 83.4909 60.9851 83.6666C61.1717 83.8862 61.468 84.018 61.7533 84.018C62.2801 84.018 62.7081 83.5897 62.7081 83.0626C62.7081 82.7222 62.5983 82.4257 62.4008 82.2609C62.2691 82.1511 62.1155 82.0962 61.9289 82.0962Z" fill="#932424"/>
<path d="M63.3007 75.178H60.2937C60.2389 75.178 60.2059 75.1341 60.2059 75.0902C60.2059 75.0353 60.2498 75.0023 60.2937 75.0023H63.3007C63.3556 75.0023 63.3885 75.0463 63.3885 75.0902C63.3885 75.1341 63.3446 75.178 63.3007 75.178Z" fill="#29C6F9"/>
<path d="M63.8824 75.5514H59.7011C59.6462 75.5514 59.6133 75.5075 59.6133 75.4636C59.6133 75.4086 59.6572 75.3757 59.7011 75.3757H63.8824C63.9372 75.3757 63.9702 75.4196 63.9702 75.4636C63.9702 75.5185 63.9372 75.5514 63.8824 75.5514Z" fill="#29C6F9"/>
<path d="M64.8701 78.703H58.7134C58.6585 78.703 58.6146 78.6591 58.6146 78.6042C58.6146 78.5493 58.6585 78.5053 58.7134 78.5053H64.8811C64.9359 78.5053 64.9798 78.5493 64.9798 78.6042C64.9798 78.6591 64.9359 78.703 64.8701 78.703Z" fill="#29C6F9"/>
<path d="M64.8701 79.2192H58.7134C58.6585 79.2192 58.6146 79.1752 58.6146 79.1203C58.6146 79.0654 58.6585 79.0215 58.7134 79.0215H64.8811C64.9359 79.0215 64.9798 79.0654 64.9798 79.1203C64.9798 79.1752 64.9359 79.2192 64.8701 79.2192Z" fill="#29C6F9"/>
<path d="M64.8701 79.6804H58.7134C58.6585 79.6804 58.6146 79.6365 58.6146 79.5815C58.6146 79.5266 58.6585 79.4827 58.7134 79.4827H64.8811C64.9359 79.4827 64.9798 79.5266 64.9798 79.5815C64.9798 79.6255 64.9359 79.6804 64.8701 79.6804Z" fill="#29C6F9"/>
<path d="M64.8701 80.1745H58.7134C58.6585 80.1745 58.6146 80.1306 58.6146 80.0757C58.6146 80.0208 58.6585 79.9769 58.7134 79.9769H64.8811C64.9359 79.9769 64.9798 80.0208 64.9798 80.0757C64.9798 80.1306 64.9359 80.1745 64.8701 80.1745Z" fill="#29C6F9"/>
<path d="M65.3969 83.1175C65.1993 83.2822 64.9908 83.414 64.7713 83.5348C64.7933 83.4799 64.8042 83.414 64.8042 83.3591C64.8042 83.2822 64.7384 83.2493 64.6835 83.2273C64.6725 83.2164 64.6506 83.2164 64.6396 83.2054C64.6616 83.1834 64.6725 83.1505 64.6616 83.1175C64.6396 83.0626 64.5628 83.0736 64.5408 83.1175C64.5408 83.1285 64.5299 83.1395 64.5299 83.1505C64.5189 83.1505 64.5079 83.1395 64.5079 83.1285C64.5409 83.0626 64.5738 82.9967 64.6067 82.9199C64.6177 82.9089 64.6067 82.8869 64.5957 82.8759C64.5408 82.832 64.475 82.854 64.4311 82.8979C64.3762 82.9528 64.3982 83.0406 64.4201 83.1065V83.1175C64.3762 83.2054 64.3214 83.2822 64.2665 83.3591L64.2555 83.3481C64.2445 83.3371 64.2226 83.3152 64.2116 83.2932C64.2336 83.2273 64.2555 83.1614 64.2555 83.0956C64.2555 83.0626 64.2226 83.0516 64.2006 83.0626C64.1238 83.0846 64.0909 83.1614 64.1019 83.2383C64.1019 83.2603 64.1128 83.2932 64.1238 83.3152C64.1128 83.3481 64.0909 83.3811 64.0689 83.414C64.058 83.436 64.0689 83.4579 64.0799 83.4689C64.058 83.5458 64.025 83.6227 63.9702 83.6885C63.9263 83.7325 63.8385 83.7654 63.7946 83.7105C63.7617 83.6776 63.7507 83.6227 63.7507 83.5678C63.7397 83.4579 63.7287 83.3371 63.7397 83.2273C63.7397 83.1724 63.7507 83.1175 63.7617 83.0626C63.7726 83.0297 63.7836 82.9857 63.8056 83.0407C63.8165 83.0626 63.8056 83.1065 63.7946 83.1395C63.7946 83.1834 63.8604 83.1944 63.8714 83.1505C63.8824 83.0956 63.9043 82.9748 63.8385 82.9418C63.7836 82.9089 63.7397 82.9528 63.7068 82.9967C63.619 83.1614 63.6519 83.3811 63.6629 83.5458C63.6739 83.6885 63.7287 83.8533 63.9043 83.8093C64.0689 83.7654 64.1348 83.5568 64.1677 83.414C64.1677 83.403 64.1677 83.3921 64.1677 83.3921C64.1787 83.403 64.1787 83.403 64.1897 83.414C64.2006 83.425 64.2116 83.436 64.2226 83.436C64.2006 83.4579 64.1897 83.4799 64.1677 83.5128C64.1567 83.5238 64.1567 83.5458 64.1677 83.5568C64.2226 83.6227 64.3214 83.5787 64.3214 83.4909C64.3214 83.4689 64.3214 83.4579 64.3104 83.436C64.3653 83.3591 64.4092 83.2822 64.4531 83.2054C64.475 83.2273 64.5079 83.2383 64.5408 83.2383C64.5408 83.2383 64.5409 83.2383 64.5518 83.2383C64.5738 83.2603 64.5957 83.2713 64.6177 83.2932C64.6396 83.3042 64.6616 83.3152 64.6835 83.3262C64.7164 83.3591 64.7055 83.3921 64.7055 83.436C64.6945 83.4909 64.6725 83.5458 64.6616 83.6007C64.5848 83.6446 64.5079 83.6995 64.486 83.7874C64.464 83.8642 64.486 83.9521 64.5518 83.996C64.5738 84.007 64.5957 83.996 64.6067 83.9741C64.6506 83.8643 64.6835 83.7654 64.7164 83.6556V83.6446C64.7823 83.6117 64.8591 83.5678 64.925 83.5348C65.1006 83.425 65.2652 83.3152 65.4298 83.1834C65.4847 83.1395 65.4298 83.0846 65.3969 83.1175ZM64.475 83.0077C64.475 82.9748 64.486 82.9199 64.5299 82.9199C64.5189 82.9528 64.497 82.9857 64.486 83.0187C64.475 83.0187 64.475 83.0187 64.475 83.0077ZM64.5738 83.8862C64.5409 83.8313 64.5847 83.7544 64.6396 83.6995C64.6177 83.7654 64.5957 83.8313 64.5738 83.8862Z" fill="#29C6F9"/>
<path d="M66.7796 87.3123H56.8916V73.9481H66.7796V87.3123ZM57.0014 87.2025H66.6699V74.0689H57.0014V87.2025Z" fill="#29C6F9"/>
<path d="M63.3885 72.3778C63.3885 72.3778 61.3911 74.0909 62.1155 74.3435C62.8288 74.596 64.7603 73.454 65.1334 73.454C65.5066 73.454 66.3845 73.454 66.3845 73.454C66.3845 73.454 65.1554 72.0264 64.5079 72.0703C63.8494 72.1143 63.3885 72.3778 63.3885 72.3778Z" fill="#FFB27D"/>
<path d="M52.0409 69.336L49.5278 89.4867C49.3302 89.4537 49.1217 89.3988 48.9242 89.3329L46.0598 88.2348H46.0489C46.0489 88.2348 46.9268 87.3234 48.134 84.1498C49.3192 80.9652 52.0409 69.336 52.0409 69.336Z" fill="#11ACDE"/>
<path d="M114.091 92.0673C114.091 92.0673 115.144 94.3514 115.089 94.9773C115.034 95.6033 114.091 97.5799 114.091 97.5799L112.949 92.3308L114.091 92.0673Z" fill="#FFB27D"/>
<path d="M113.267 82.25L114.091 92.0673L112.949 92.3418L109.942 83.425L113.267 82.25Z" fill="#FFB27D"/>
<path d="M88.7285 50.7007L100.065 44.0021L107.846 49.4598L97.0581 55.7521L88.7285 50.7007Z" fill="#11ACDE"/>
<path d="M94.5449 53.7865C94.5449 53.7865 94.2596 55.4337 92.6683 56.2902C91.088 57.1358 89.7272 57.3883 90.0674 60.1227C90.4076 62.857 88.5419 63.4829 88.2017 65.2948C87.8615 67.1068 87.9054 70.4231 92.4488 69.4348C96.9923 68.4465 107.396 69.1493 108.526 67.6778C109.657 66.2063 108.867 63.1425 106.935 60.8255C105.015 58.4974 107.561 56.982 106.65 54.9395C105.739 52.897 104.005 50.7886 104.005 50.7886C104.005 50.7886 96.5313 49.361 94.5449 53.7865Z" fill="#132644"/>
<path d="M96.696 129.129L98.2324 135.597L100.526 135.575L100.614 129.129H96.696Z" fill="#FFB27D"/>
<path d="M116.011 129.404L120.379 135.597L122.08 133.412L119.457 128.558L116.011 129.404Z" fill="#FFB27D"/>
<path d="M102.732 63.9991C102.743 64.01 102.447 71.1918 101.217 71.2028C100.954 71.2028 99.0555 66.1734 98.814 66.1075C97.4971 65.7451 97.3105 62.5276 97.3325 62.5166C97.8922 62.4068 98.0458 61.6381 98.0349 58.3437L98.2873 58.3986L102.523 59.2332C102.523 59.2332 102.425 60.5729 102.425 61.8248C102.425 62.89 102.49 63.8892 102.732 63.9991Z" fill="#FFB27D"/>
<path d="M85.6008 56.7953L85.4581 56.5098C88.5419 55.0383 88.7065 51.5682 88.7065 50.7666C88.7065 50.6678 88.7614 50.5689 88.8602 50.525C88.9589 50.4811 89.0577 50.558 89.0577 50.6568C89.0577 51.5902 88.8272 55.258 85.6008 56.7953Z" fill="#EFCBAB"/>
<path d="M85.4691 56.4988L85.0411 56.5757L85.2825 57.0699L85.6008 56.7953L85.4691 56.4988Z" fill="#D8A987"/>
<path d="M85.0411 56.5757C85.0411 56.5757 84.4704 56.8393 84.3168 56.6855C84.3168 56.6855 84.3826 57.1907 84.6131 57.2895C84.6131 57.2895 85.096 57.2346 85.2825 57.0699L85.0411 56.5757Z" fill="#EFCBAB"/>
<path d="M102.523 59.2442C102.523 59.2442 102.425 60.5839 102.425 61.8357C100.054 61.7699 98.803 59.6065 98.2872 58.3986L102.523 59.2442Z" fill="#EF9E67"/>
<path d="M97.4093 58.5523C97.4093 58.5523 95.807 56.8722 95.1815 55.2799C94.7315 54.1488 94.4572 49.6685 98.9567 49.4159C98.9567 49.4159 100.252 49.2841 101.613 49.8551C102.688 50.3054 104.345 51.4145 103.577 55.5325L103.434 56.8942L97.4093 58.5523Z" fill="#132644"/>
<path d="M121.674 131.995C121.674 131.995 120.543 132.193 119.622 132.259C119.413 132.27 119.227 132.281 119.051 132.281C118.601 132.281 117.8 132.116 117.262 131.984L117.218 131.973C116.977 131.918 116.801 131.875 116.735 131.853L116.702 131.842C116.702 131.842 111.083 125.582 107.934 115.556C107.857 115.326 107.78 115.084 107.703 114.854C105.98 109.824 102.403 103.51 100.515 97.7886C100.219 96.8771 99.9444 96.0206 99.703 95.2079C99.6262 94.9444 99.5493 94.6918 99.4835 94.4393C98.0897 89.6075 97.6946 86.4449 97.3215 83.0516L108.647 85.9397C108.658 85.9507 113.41 106.574 121.674 131.995Z" fill="#A53D38"/>
<path d="M103.27 59.914C103.27 59.914 97.7824 61.111 97.0911 57.6848C96.3997 54.2586 95.2254 52.1063 98.6933 51.1949C102.161 50.2834 103.116 51.4584 103.621 52.5456C104.126 53.6217 104.674 59.5077 103.27 59.914Z" fill="#FFB27D"/>
<path d="M101.184 50.6019C101.184 50.6019 100.493 54.9285 98.2982 55.9937C96.1034 57.0589 94.984 56.6416 94.984 56.6416C94.984 56.6416 96.4765 54.8736 96.3448 52.3369C96.3338 52.3369 99.659 48.9217 101.184 50.6019Z" fill="#132644"/>
<path d="M100.866 51.0082C100.866 51.0082 102.172 51.678 102.622 52.5016C103.072 53.3143 104.005 53.6107 104.071 54.9285C104.071 54.9285 104.652 51.9636 103.072 50.6787C101.393 49.2951 100.866 51.0082 100.866 51.0082Z" fill="#132644"/>
<path d="M98.1556 135.235C98.1556 135.235 98.3421 136.52 97.8593 137.881C97.8593 137.881 97.4861 139.594 99.1652 139.627C100.855 139.66 101.261 139.496 101.075 138.452C100.888 137.398 100.515 135.586 100.515 135.586L98.1556 135.235Z" fill="#FFB27D"/>
<path d="M97.8593 137.881C97.8593 137.881 97.552 139.496 97.7386 140.363C97.7386 140.363 98.2434 140.747 99.4725 140.747C100.636 140.747 101.239 140.363 101.239 140.363C101.239 140.363 101.272 138.584 100.965 137.837C100.965 137.837 99.7688 139.627 97.8593 137.881Z" fill="#C45446"/>
<path d="M126.14 138.617C126.14 138.617 123.035 135.158 122.08 133.401L119.764 134.587L124.933 139.441L126.14 139.276V138.617Z" fill="#FFB27D"/>
<path d="M128.116 140.649C128.116 140.649 124.769 140.649 124.198 140.583C123.627 140.517 123.166 139.693 122.541 138.452C122.288 137.947 121.718 137.662 121.136 137.508V140.385H120.258L119.424 137.332C118.875 136.322 119.38 135.4 119.764 134.598C120.214 134.598 121.432 134.905 123.726 137.497C124.483 138.343 125.317 138.65 126.14 138.628C126.151 138.639 126.162 138.639 126.173 138.65C128.083 139.496 128.116 140.649 128.116 140.649Z" fill="#C45446"/>
<path d="M119.622 132.259C119.413 132.27 119.227 132.281 119.051 132.281C118.601 132.281 117.8 132.116 117.262 131.984L117.218 131.973L116.735 131.853L116.702 131.842C116.702 131.842 111.084 125.582 107.934 115.556C107.857 115.326 107.78 115.084 107.703 114.854C105.98 109.824 102.403 103.51 100.515 97.7885C100.219 96.8771 99.9444 96.0206 99.703 95.2079C99.6262 94.9444 99.5493 94.6918 99.4835 94.4392L101.492 92.9128C101.492 92.9128 107.506 102.653 109.371 111.834C110.908 119.444 117.558 129.305 119.622 132.259Z" fill="#912F2F"/>
<path d="M101.7 112.701C101.733 117.16 101.514 127.416 100.932 131.666C100.932 131.666 100.383 132.149 99.0116 132.16C97.6178 132.171 96.9923 131.655 96.9923 131.655C95.5327 124.275 94.5011 118.17 93.7438 112.899C93.1293 108.583 92.5806 104.882 92.1526 101.687C91.7794 98.8647 94.1499 91.2108 94.1499 91.2108L103.039 90.3432C102.886 98.1509 101.678 110.11 101.7 112.701Z" fill="#A53D38"/>
<path d="M99.0116 132.149C97.8263 132.215 96.9923 131.644 96.9923 131.644C95.5327 124.264 94.5011 118.159 93.7438 112.888C93.1293 108.572 92.5806 104.871 92.1526 101.676C91.7794 98.8537 94.1499 91.1998 94.1499 91.1998L97.1679 93.1325C97.1679 93.1325 92.8878 97.0198 93.9414 104.377C94.984 111.746 97.552 131.106 99.0116 132.149Z" fill="#912F2F"/>
<path d="M113.015 85.0503C112.455 85.237 111.83 85.3468 111.215 85.4346C110.228 85.5774 109.273 85.6762 108.647 85.9507C106.825 86.7743 102.425 62.4287 102.425 62.4287C102.425 62.4287 105.629 62.4617 107.1 64.7787C108.57 67.0958 114.299 78.5713 114.815 82.2391C115.045 83.8972 114.189 84.644 113.015 85.0503Z" fill="#29C6F9"/>
<path d="M119.622 117.873C119.622 117.873 119.325 118.609 118.513 119.641C118.107 120.157 117.58 120.739 116.9 121.354C115.1 122.947 112.225 124.682 107.791 125.538C107.561 125.582 107.319 125.626 107.067 125.67C105.728 125.89 104.444 126.054 103.226 126.153C100.735 126.373 98.5068 126.384 96.5972 126.296C95.2912 126.241 94.1499 126.131 93.1841 126.011C91.0112 125.736 89.7711 125.407 89.7711 125.407C89.7711 125.407 89.7711 103.411 91.5819 90.3432C92.5805 83.1065 95.9497 62.5385 95.9497 62.5385L97.6178 62.286L101.624 71.2248L102.414 62.4397L104.235 63.0217C105.135 63.3072 105.816 64.043 106.046 64.9544L119.622 117.873Z" fill="#29C6F9"/>
<path d="M106.694 84.0839L97.3874 83.1395L98.9018 69.6544L108.197 70.5988L106.694 84.0839Z" fill="#BC3F3F"/>
<path d="M98.9018 69.6544L98.2983 69.6105L96.8936 83.0845L97.3874 83.1395L98.9018 69.6544Z" fill="#9B2323"/>
<path d="M91.088 76.6056C91.088 76.6056 97.6178 78.6042 103.862 79.4937C103.862 79.4937 105.926 80.3832 104.96 80.6248C104.707 80.6907 92.2074 83.414 90.3527 81.646L91.088 76.6056Z" fill="#FFB27D"/>
<path d="M97.6178 62.275C97.6178 62.275 92.7342 62.868 91.9111 63.8563C89.3102 66.975 86.9507 80.3063 88.9919 83.3921C91.4282 87.0708 95.1815 81.2946 96.3558 77.9014C96.9594 76.1224 97.958 65.4815 97.6178 62.275Z" fill="#29C6F9"/>
<path d="M103.248 79.4058C103.248 79.4058 104.016 79.329 104.159 79.0874C104.455 78.5932 104.905 78.6042 105.289 78.5383C105.673 78.4724 106.101 78.0551 106.178 78.143C106.255 78.2308 105.893 78.6921 105.695 78.8678C105.695 78.8678 106.112 78.8897 106.375 78.7579C106.65 78.6262 107.605 77.539 107.605 78.0002C107.616 79.1313 107.528 79.318 106.562 80.1196C105.761 80.7785 103.061 81.0201 103.061 81.0201L103.248 79.4058Z" fill="#FFB27D"/>
<path d="M97.6069 76.3091L97.4203 78.2199C97.113 78.154 96.7618 78.0442 96.3558 77.8795C93.678 76.8033 94.7315 71.4773 94.7315 71.4773C95.1486 73.6187 96.4875 75.2659 97.6069 76.3091Z" fill="#11ACDE"/>
<path d="M104.016 50.7776C104.016 50.7776 100.054 49.2732 94.545 53.7864L94.6548 52.7542C94.7535 51.8318 95.2254 50.9972 95.9717 50.4372C96.8057 49.8112 98.1446 49.1304 100.153 48.8449C101.536 48.6472 102.908 49.2402 103.72 50.3713L104.016 50.7776Z" fill="#29C6F9"/>
<path d="M113.015 85.0502C112.455 85.2369 111.83 85.3467 111.215 85.4346L108.647 74.0799C108.647 74.0799 112.971 82.8101 113.015 85.0502Z" fill="#11ACDE"/>
<path d="M101.305 58.0252C101.305 58.0252 101.558 58.5084 101.931 58.5194C102.304 58.5194 103.248 58.4316 103.314 58.3437C103.379 58.2559 103.566 57.7397 103.566 57.7397C103.566 57.7397 102.008 57.7068 101.305 58.0252Z" fill="white"/>
<path d="M228.807 72.4657C228.807 72.4657 228.401 71.8836 227.929 71.5213C227.457 71.1589 226.963 70.478 227.116 70.2584C227.259 70.0388 228.664 69.0065 228.664 69.0065L229.41 70.8624L228.807 72.4657Z" fill="#FFB27D"/>
<path d="M240.933 50.8325L253.17 45.9787L260.018 52.5785L248.385 57.1248L240.933 50.8325Z" fill="#11ACDE"/>
<path d="M234.261 77.0009L229.388 70.7416L228.807 72.4766C228.807 72.4766 233.8 83.8313 236.083 82.7771C237.147 82.272 234.261 77.0009 234.261 77.0009Z" fill="#FFB27D"/>
<path d="M249.493 56.5757C249.493 56.5757 247.112 57.9813 248.572 60.6937C248.572 60.6937 246.486 60.3093 246.036 59.6944C246.036 59.6944 246.091 59.9579 246.168 60.0787C246.168 60.0787 243.732 59.7713 243.282 58.8598C242.36 56.982 244.599 57.1028 245.576 55.1591C246.849 52.6114 248.835 50.6128 251.655 52.0184C251.655 52.0184 255.595 51.7988 253.817 56.8612C252.039 61.9126 253.719 62.3629 253.719 62.3629C253.719 62.3629 253.192 62.4727 252.961 62.4068C252.961 62.4068 252.665 62.1981 252.643 61.9895C252.643 61.9895 252.632 62.297 252.698 62.4068C252.698 62.4068 250.832 62.0993 250.108 61.1659C249.384 60.2435 248.945 57.575 249.493 56.5757Z" fill="#C94C43"/>
<path d="M251.831 63.0437C251.897 63.6696 251.985 64.2297 252.018 64.5042C252.04 64.7019 252.479 68.1171 251.688 68.15C250.898 68.183 248.934 72.2351 248.045 72.2021C247.057 72.1692 246.179 64.7129 246.047 64.7129C246.3 64.6031 247.068 62.1542 247.321 61.2208C247.617 60.0897 247.847 58.8598 247.847 58.8598L251.864 59.1124L252.105 59.1234C251.963 59.6724 251.853 60.1886 251.776 60.6717C251.765 60.7376 251.754 60.8035 251.754 60.8694C251.677 61.3965 251.743 62.275 251.831 63.0437Z" fill="#FFB27D"/>
<path d="M247.299 58.4535C247.299 58.4535 246.651 56.389 246.783 54.7967C246.881 53.6657 248.681 50.4591 252.555 52.0953C252.555 52.0953 253.499 51.8647 254.399 52.9079C255.112 53.7315 256.045 55.3348 253.708 58.4645L253.027 59.5517L247.299 58.4535Z" fill="#C94C43"/>
<path d="M251.831 63.0437C249.022 62.2201 247.825 58.9696 247.825 58.9696C249.011 59.0026 250.558 59.8262 251.776 60.6717C251.765 60.7376 251.754 60.8035 251.754 60.8694C251.677 61.3965 251.743 62.275 251.831 63.0437Z" fill="#ED975D"/>
<path d="M252.029 61.9016C252.029 61.9016 246.947 60.6498 247.781 57.4981C248.615 54.3465 248.517 52.0624 251.787 52.7322C255.068 53.4021 255.376 54.7638 255.354 55.8839C255.343 57.004 253.378 62.1542 252.029 61.9016Z" fill="#FFB27D"/>
<path d="M254.125 53.2593C254.125 53.2593 251.765 56.5867 249.493 56.5757C247.222 56.5647 246.453 55.7411 246.453 55.7411C246.453 55.7411 248.429 54.8736 249.362 52.7103C249.362 52.7103 253.543 51.2278 254.125 53.2593Z" fill="#C94C43"/>
<path d="M253.697 53.468C253.697 53.468 254.509 54.5661 254.553 55.4337C254.597 56.3012 254.267 57.9813 254.761 58.0582C254.761 58.0582 256.473 55.818 255.672 54.0939C254.827 52.2601 253.697 53.468 253.697 53.468Z" fill="#C94C43"/>
<path d="M253.861 53.6437C253.861 53.6437 251.853 57.2565 248.846 57.7837C248.846 57.7837 252.16 56.1145 253.06 53.6217C253.949 51.129 253.861 53.6437 253.861 53.6437Z" fill="#C94C43"/>
<path d="M251.238 59.8811C251.238 59.8811 251.304 60.3643 251.611 60.4741C251.919 60.5839 252.731 60.7925 252.808 60.7376C252.885 60.6827 253.192 60.3094 253.192 60.3094C253.192 60.3094 251.919 59.8262 251.238 59.8811Z" fill="white"/>
<path d="M249.34 108.1C249.274 108.375 249.208 108.638 249.142 108.902C248.758 110.494 248.407 111.965 248.176 113.206C247.88 114.81 247.814 116.007 248.198 116.512C249.186 117.807 248.934 124.748 248.615 129.744C248.418 132.72 248.198 135.004 248.198 135.004L246.399 136.849C246.399 136.849 245.828 133.895 245.115 130.315C244.149 125.505 242.92 119.554 242.437 118.093C242.053 116.94 241.493 112.009 240.999 106.969C240.977 106.716 240.955 106.464 240.922 106.211C240.835 105.333 240.758 104.454 240.67 103.598C240.231 98.8318 240.868 94.3514 240.868 94.3514C240.868 94.3514 243.205 92.4297 246.212 92.1661C247.979 92.0124 249.647 92.5724 250.47 94.7577C251.688 97.9313 250.47 103.411 249.34 108.1Z" fill="#FFB27D"/>
<path d="M249.34 108.1C246.882 106.321 243.425 103.158 242.162 97.9752C241.921 95.3946 243.951 92.9458 246.223 92.1771C247.99 92.0234 249.658 92.5834 250.481 94.7687C251.688 97.9313 250.47 103.411 249.34 108.1Z" fill="#ED975D"/>
<path d="M258.306 76.7923L270.389 79.911V81.3275C270.389 81.3275 258.361 81.1848 257.593 79.8451C256.813 78.5054 258.306 76.7923 258.306 76.7923Z" fill="#FFB27D"/>
<path d="M270.4 123.331L269.84 125.659C269.84 125.659 267.349 124.374 264.177 122.705C259.239 120.103 252.665 116.578 251.381 115.589C250.536 114.941 249.406 111.394 248.374 107.397C246.827 101.423 245.466 94.4283 245.466 94.4283C245.466 94.4283 247.759 85.6103 253.894 91.0021C257.56 94.2306 256.989 100.457 256.594 105.3C256.331 108.55 256.133 111.175 257.351 111.856C259.096 112.833 263.332 116.402 266.328 119.894C267.404 121.146 268.315 122.387 268.896 123.496L270.4 123.331Z" fill="#FFB27D"/>
<path d="M270.4 79.922C270.4 79.922 272.617 78.8238 273.495 78.725C274.373 78.6152 275.854 78.5823 275.854 78.725C275.854 78.8678 274.263 79.8561 273.846 79.922C273.418 79.9879 272.617 80.5918 272.858 80.6687C273.1 80.7346 274.405 80.4381 274.427 80.6687C274.449 80.8993 273.637 81.0421 273.495 81.2178C273.352 81.3935 272.858 81.6021 272.068 81.5033C271.278 81.3935 270.4 81.3495 270.4 81.3495V79.922Z" fill="#FFB27D"/>
<path d="M270.4 113.162C262.597 124.407 242.47 125.67 242.47 125.67C239.199 113.733 240.538 83.5568 241.285 72.3339C241.241 70.3792 241.317 68.721 241.636 68.0841C242.141 67.0958 244.862 65.3717 245.839 64.5152C245.839 64.5152 246.069 64.4273 246.256 64.4054C246.399 64.9215 248.22 71.082 248.396 70.9502C248.572 70.8184 251.633 64.9764 251.952 64.2846C252.281 64.2956 252.5 64.3065 252.566 64.3065C253.104 64.3285 256.012 64.9105 256.265 65.3827C256.352 65.5474 257.187 67.7656 258.24 70.6977C258.24 70.6977 258.24 70.6977 258.24 70.7086C260.205 76.2103 263.091 75.178 264.243 76.8142C264.967 77.8355 264.649 79.7463 263.321 81.4044C263.212 81.5472 263.091 81.679 262.959 81.8217C261.938 82.8979 260.567 83.5348 258.317 83.2054C257.757 83.1175 256.627 82.5794 255.705 81.7888C257.911 90.0577 270.4 113.162 270.4 113.162Z" fill="#29C6F9"/>
<path d="M246.388 64.1089L245.334 64.7129C245.334 64.7129 248.22 72.872 248.363 72.8391C248.506 72.8061 252.841 64.3175 252.841 64.3175L251.952 63.9442L248.396 70.9393L246.388 64.1089Z" fill="#F99746"/>
<path d="M255.376 53.5778C255.376 53.5778 251.677 51.5023 245.576 55.1481L245.839 54.1488C246.069 53.2484 246.662 52.4907 247.485 52.0514C248.407 51.5572 249.834 51.0741 251.853 51.096C253.247 51.107 254.52 51.8977 255.156 53.1386L255.376 53.5778Z" fill="#29C6F9"/>
<path d="M236.95 56.2463L236.862 55.9388C240.132 54.9724 240.834 51.5682 240.955 50.7666C240.966 50.6678 241.043 50.5799 241.142 50.5579C241.241 50.536 241.339 50.6128 241.317 50.7227C241.175 51.6341 240.374 55.225 236.95 56.2463Z" fill="#EFCBAB"/>
<path d="M236.862 55.9388H236.423L236.598 56.4659L236.95 56.2463L236.862 55.9388Z" fill="#D8A987"/>
<path d="M236.423 55.9388C236.423 55.9388 235.819 56.1035 235.699 55.9388C235.699 55.9388 235.688 56.4439 235.896 56.5867C235.896 56.5867 236.379 56.5976 236.588 56.4769L236.423 55.9388Z" fill="#EFCBAB"/>
<path d="M246.596 64.8446C246.596 64.8446 247.562 66.6236 251.403 64.9984L248.385 70.9393L246.596 64.8446Z" fill="white"/>
<path d="M245.334 64.7129C245.334 64.7129 244.829 81.6131 240.67 84.8855C240.374 85.1161 240.066 85.2808 239.737 85.3687C237.63 85.9068 236.105 84.6549 235.073 82.9089C233.635 80.493 233.141 77.1437 233.394 76.375C233.855 74.9035 234.93 77.5061 237.18 76.7923C239.43 76.0785 240.033 67.0189 241.603 65.7012C241.987 65.3608 245.334 64.7129 245.334 64.7129Z" fill="#29C6F9"/>
<path d="M224.998 76.7374C224.998 76.7374 224.373 76.3969 223.769 75.9577C223.495 75.76 223.232 75.5294 223.034 75.3098C222.924 75.189 222.836 75.0572 222.782 74.9474C222.782 74.9474 227.863 68.8199 228.269 68.1061C228.675 67.3813 232.516 61.4404 232.516 61.4404C232.516 61.4404 232.988 61.6601 233.548 62.0224C233.756 62.1542 233.976 62.3189 234.195 62.4837C234.59 62.8021 234.963 63.1755 235.194 63.5818C235.194 63.5818 229.608 69.2481 229.213 70.0607C228.818 70.8953 224.998 76.7374 224.998 76.7374Z" fill="#EFCBAB"/>
<path d="M223.769 75.9577C223.495 75.7601 223.232 75.5294 223.034 75.3098C222.924 75.189 222.836 75.0573 222.782 74.9474C222.782 74.9474 227.863 68.8199 228.269 68.1061C228.675 67.3813 232.516 61.4404 232.516 61.4404C232.516 61.4404 232.988 61.6601 233.548 62.0224C233.756 62.1542 233.976 62.3189 234.195 62.4837C232.626 64.0869 228.39 68.4575 228.027 69.2042C227.676 69.94 224.922 74.2007 223.769 75.9577Z" fill="#DDB08E"/>
<path d="M229.004 66.9091C229.004 66.9091 227.501 68.3696 227.336 69.358L228.905 70.6208C228.905 70.6208 230.277 69.2811 230.716 68.2818L229.004 66.9091Z" fill="#C94C43"/>
<path d="M229.388 70.7416C229.388 70.7416 229.498 69.7533 229.268 69.4019C229.037 69.0505 229.015 68.0951 228.807 68.1939C228.598 68.2928 228.73 69.0834 228.598 69.4568C228.466 69.8411 228.269 71.5981 228.807 71.9385C229.344 72.279 229.388 70.7416 229.388 70.7416Z" fill="#FFB27D"/>
<path d="M227.863 68.2598C227.863 68.2598 227.237 68.161 227.007 68.5783C226.776 68.9956 226.502 69.6654 226.93 69.94C227.358 70.2035 227.863 68.2598 227.863 68.2598Z" fill="#FFB27D"/>
<path d="M248.626 129.744C248.429 132.72 248.209 135.004 248.209 135.004L246.41 136.849C246.41 136.849 245.839 133.895 245.126 130.315C245.126 130.315 247.145 131.018 248.626 129.744Z" fill="white"/>
<path d="M250.009 137.673L249.044 138.2C248.692 138.321 248.396 138.364 248.045 138.496C247.507 138.705 247.123 139.111 247.101 139.188C246.827 140.297 246.443 140.231 246.443 140.231L242.558 140.264C242.371 140.176 242.689 139.386 242.832 139.243C243.205 138.881 244.303 139.067 244.698 137.925C244.928 137.288 246.036 135.29 246.036 135.29L246.047 135.279C246.08 135.257 246.289 135.213 247.419 135.454C248.001 135.575 248.242 134.4 248.242 134.4C248.242 134.4 248.429 134.433 248.626 134.587C248.791 134.697 248.956 134.883 249.054 135.169C249.197 135.575 249.768 136.157 250.174 136.531C250.426 136.761 250.613 136.915 250.613 136.915C250.613 136.915 250.788 137.113 250.009 137.673Z" fill="#11ACDE"/>
<path d="M270.4 123.331L269.84 125.659C269.84 125.659 267.349 124.374 264.177 122.705C265.406 121.925 266.021 120.761 266.317 119.883C267.393 121.135 268.304 122.376 268.885 123.485L270.4 123.331Z" fill="white"/>
<path d="M273.626 124.232C273.626 124.232 273.626 124.232 273.615 124.232C273.538 124.21 273.209 124.1 272.979 123.573C272.836 123.221 272.792 122.936 272.65 122.584L272.101 121.629C271.519 120.871 271.322 121.047 271.322 121.047C271.322 121.047 271.168 121.245 270.948 121.497C270.575 121.914 270.016 122.507 269.621 122.661C269.335 122.771 269.16 122.947 269.05 123.111C268.907 123.32 268.874 123.507 268.874 123.507C268.874 123.507 270.06 123.715 269.961 124.297C269.763 125.429 269.807 125.637 269.829 125.67L269.84 125.681C269.84 125.681 271.859 126.735 272.507 126.944C273.659 127.317 274.263 128.097 274.636 128.448C274.79 128.591 274.998 128.657 275.207 128.624C275.514 128.58 275.898 128.481 275.986 128.295L273.626 124.232Z" fill="#11ACDE"/>
<path d="M247.595 76.1554C247.595 75.8369 247.858 75.5734 248.176 75.5734C248.495 75.5734 248.758 75.8369 248.758 76.1554C248.758 76.4738 248.495 76.7373 248.176 76.7373C247.858 76.7373 247.595 76.4738 247.595 76.1554Z" fill="#11ACDE"/>
<path d="M247.595 80.493C247.595 80.1745 247.858 79.911 248.176 79.911C248.495 79.911 248.758 80.1745 248.758 80.493C248.758 80.8114 248.495 81.075 248.176 81.075C247.858 81.075 247.595 80.8114 247.595 80.493Z" fill="#11ACDE"/>
<path d="M263.31 81.3825C263.201 81.5252 263.08 81.657 262.948 81.7998C261.928 82.876 260.556 83.5129 258.306 83.1834C257.746 83.0956 256.616 82.5575 255.694 81.7668C255.694 81.7668 253.839 76.7044 254.092 75.9907C254.344 75.2769 257.911 80.8224 260.874 81.086C262.037 81.1738 262.816 81.2727 263.31 81.3825Z" fill="#11ACDE"/>
<path d="M241.548 77.4402L240.67 84.8855C240.374 85.1161 240.066 85.2808 239.737 85.3687C237.63 85.9068 236.105 84.6549 235.073 82.9089C236.148 83.0626 238.771 83.2932 239.342 82.1512C240.044 80.7126 241.548 77.4402 241.548 77.4402Z" fill="#11ACDE"/>
<path d="M190.451 36.8972C190.451 36.8972 191.504 35.9528 191.757 35.283C192.009 34.6241 191.987 33.504 191.987 32.7792C191.987 32.7792 191.669 32.6694 191.592 33.0098C191.515 33.3502 191.373 34.1519 191.087 34.3166C190.791 34.4813 190.144 34.4594 189.99 35.283C189.836 36.1175 190.451 36.8972 190.451 36.8972Z" fill="#B56F40"/>
<path d="M188.058 37.0619C188.058 37.0619 187.104 35.1072 187.301 34.4703C187.499 33.8334 190.429 33.1416 190.813 33.4381C191.197 33.7346 190.813 37.3913 190.813 37.3913L188.058 37.0619Z" fill="#B56F40"/>
<path d="M218.886 95.9107C218.886 95.9107 218.743 97.525 219.303 98.2937C219.862 99.0624 220.17 99.7652 220.356 99.4138C220.543 99.0624 220.049 97.8435 220.214 97.8764C220.378 97.8984 220.828 99.3259 221.059 99.7652C221.289 100.204 221.783 100.907 222.101 100.556C222.43 100.204 221.794 96.8881 221.541 96.4708C221.289 96.0535 220.751 95.1201 220.751 95.1201L218.886 95.9107Z" fill="#B56F40"/>
<path d="M198.736 47.2965L209.898 41.0262L217.382 50.3164L207.176 55.2689L198.736 47.2965Z" fill="#11ACDE"/>
<path d="M203.423 50.2615C203.423 50.2615 203.192 51.2608 202.534 51.6231C201.875 51.9745 202.907 52.9409 202.654 53.6547C202.402 54.3685 203.434 55.2799 203.434 55.2799L210.633 56.1145C210.633 56.1145 211.686 55.6533 211.785 54.4124C211.884 53.1715 211.994 51.6231 211.994 51.6231L208.844 49.2182L204.312 49.4379L203.423 50.2615Z" fill="#C94C43"/>
<path d="M179.224 38.2369C179.224 38.2369 178.895 37.4572 178.653 36.6007C178.544 36.2054 178.467 35.7991 178.445 35.4477C178.434 35.25 178.445 35.0633 178.478 34.9206C178.478 34.9206 187.762 32.9988 188.673 32.6255C189.584 32.2521 197.573 29.5727 197.573 29.5727C197.573 29.5727 197.848 30.1327 198.1 30.8904C198.188 31.1759 198.287 31.4834 198.352 31.8019C198.484 32.3949 198.55 33.0208 198.462 33.5699C198.462 33.5699 189.057 34.69 188.08 35.1512C187.115 35.6453 179.224 38.2369 179.224 38.2369Z" fill="#EFCBAB"/>
<path d="M178.664 36.6112C178.554 36.2158 178.477 35.8095 178.455 35.4581C178.444 35.2605 178.455 35.0738 178.488 34.931C178.488 34.931 187.773 33.0093 188.683 32.6359C189.594 32.2626 197.584 29.5831 197.584 29.5831C197.584 29.5831 197.858 30.1432 198.11 30.9009C198.198 31.1864 198.297 31.4939 198.363 31.8123C195.718 32.1418 188.53 33.0532 187.641 33.4815C186.763 33.9098 181.023 35.8205 178.664 36.6112Z" fill="#DDB08E"/>
<path d="M190.253 32.0764C190.253 32.0764 187.773 32.318 186.873 33.1087L187.4 35.4477C187.4 35.4477 189.672 35.2171 190.824 34.6131L190.253 32.0764Z" fill="#C94C43"/>
<path d="M192.503 140.253C192.503 140.253 192.503 138.76 192.712 138.266C192.92 137.771 193.699 135.751 193.699 135.751H196.75C196.75 135.751 197.321 137.596 197.354 138.2C197.387 138.804 197.354 140.264 197.354 140.264H192.503V140.253Z" fill="#11ACDE"/>
<path d="M211.84 140.253C211.84 140.253 211.84 138.76 211.632 138.266C211.423 137.771 210.644 135.751 210.644 135.751H207.593C207.593 135.751 207.022 137.596 206.989 138.2C206.956 138.804 206.989 140.264 206.989 140.264H211.84V140.253Z" fill="#11ACDE"/>
<path d="M204.224 56.2682C204.224 56.2682 203.609 59.5406 202.962 60.9463L199.285 62.7582L204.432 72.9488L211.511 66.5577L209.162 61.9675C209.162 61.9675 208.943 57.4213 209.656 55.8729C210.38 54.3135 204.224 56.2682 204.224 56.2682Z" fill="#B56F40"/>
<path d="M204.136 56.7185C204.136 56.7185 204.762 59.2552 206.627 59.4858C208.504 59.7164 209.25 57.6738 209.25 57.6738L204.136 56.7185Z" fill="#99592E"/>
<path d="M206.561 58.5414C205.211 58.3108 203.006 56.1255 203.346 53.8963L203.883 50.4152C204.004 49.6026 204.674 49.0206 205.376 49.1304L210.523 49.921C211.214 50.0308 211.675 50.7776 211.555 51.5902L211.05 54.8736C210.688 57.2126 208.098 58.8049 206.561 58.5414Z" fill="#B56F40"/>
<path d="M192.887 88.5863C192.876 88.18 193.414 104.751 192.624 114.162C191.845 123.452 192.635 136.377 192.635 136.377C192.635 136.377 195.181 137.782 197.946 136.377C197.946 136.377 200.975 118.433 200.953 114.162C200.931 109.615 204.246 89.3001 204.246 89.3001L192.887 88.5863Z" fill="#F99746"/>
<path d="M211.73 136.377C211.73 136.377 209.184 137.782 206.419 136.377C206.419 136.377 203.39 118.433 203.412 114.162C203.423 112.24 202.83 107.507 202.15 102.675C201.217 96.0755 200.108 89.3 200.108 89.3L211.906 88.5643C211.906 88.5643 210.929 104.871 211.73 114.162C212.531 123.452 211.73 136.377 211.73 136.377Z" fill="#F99746"/>
<path d="M205.453 54.1269C204.948 54.05 203.96 53.7864 203.916 52.886C203.906 52.6115 203.993 52.3808 204.169 52.2271C204.366 52.0514 204.652 51.9855 204.948 52.0294L206.495 52.271C206.792 52.315 206.978 52.4358 207.066 52.6115C207.209 52.9189 207 53.3252 206.902 53.479C206.572 54.0171 206.199 54.2367 205.727 54.1598C205.716 54.1598 205.607 54.1598 205.453 54.1269ZM204.937 52.1283C204.663 52.0844 204.41 52.1502 204.235 52.304C204.081 52.4358 204.004 52.6444 204.015 52.886C204.037 53.3472 204.334 53.6876 204.882 53.8963C205.31 54.05 205.727 54.072 205.738 54.072H205.749C206.177 54.1378 206.517 53.9402 206.825 53.435C206.891 53.3252 207.11 52.9409 206.978 52.6664C206.913 52.5126 206.737 52.4138 206.485 52.3808L204.937 52.1283Z" fill="#2C3A64"/>
<path d="M209.02 54.6759C208.866 54.654 208.756 54.621 208.734 54.621C208.262 54.5442 207.977 54.2257 207.823 53.6108C207.78 53.4351 207.703 52.9848 207.933 52.7322C208.065 52.5785 208.284 52.5346 208.581 52.5785L210.128 52.8201C210.435 52.864 210.688 53.0178 210.819 53.2484C210.94 53.457 210.951 53.6986 210.863 53.9512C210.545 54.7967 209.524 54.7528 209.02 54.6759ZM208.57 52.6883C208.306 52.6444 208.12 52.6883 208.01 52.8091C207.812 53.0287 207.9 53.457 207.922 53.5888C208.065 54.1598 208.328 54.4563 208.756 54.5222H208.767C208.767 54.5222 209.184 54.632 209.634 54.6101C210.227 54.5771 210.611 54.3465 210.765 53.9073C210.852 53.6766 210.841 53.468 210.732 53.2923C210.611 53.0946 210.391 52.9629 210.117 52.9189L208.57 52.6883Z" fill="#2C3A64"/>
<path d="M206.88 53.0507C206.858 53.0507 206.836 53.0287 206.825 53.0068C206.814 52.9738 206.836 52.9409 206.869 52.9299C206.891 52.9189 207.549 52.7432 208.043 53.1166C208.065 53.1385 208.076 53.1715 208.054 53.2044C208.032 53.2264 207.999 53.2374 207.966 53.2154C207.516 52.886 206.913 53.0507 206.902 53.0507C206.891 53.0617 206.88 53.0617 206.88 53.0507Z" fill="#2C3A64"/>
<path d="M205.519 62.7472L202.029 61.2318C202.029 61.2318 200.229 75.5733 202.632 76.4628C202.632 76.4628 209.502 64.2626 209.031 62.6923L205.519 62.7472Z" fill="white"/>
<path d="M203.313 60.3313C203.313 60.3313 202.325 60.496 201.82 60.9902C201.82 60.9902 202.567 63.4171 204.553 64.1418L205.409 62.7472C205.398 62.7472 203.774 61.9785 203.313 60.3313Z" fill="#D2E3FC"/>
<path d="M205.398 62.7472C205.398 62.7472 208.646 62.6264 209.129 61.0561C209.129 61.0561 209.777 61.7369 209.755 62.835C209.755 62.835 208.723 64.3834 206.155 64.4054L205.398 62.7472Z" fill="#D2E3FC"/>
<path d="M205.672 56.1035C205.672 56.1035 207.395 56.1804 208.164 56.4879C208.164 56.4879 207.637 57.1138 206.945 57.004C206.254 56.8942 205.771 56.5647 205.672 56.1035Z" fill="#FFF0E6"/>
<path d="M193.436 51.0082C191.867 51.9965 189.727 53.3362 187.982 54.3904C187.894 54.0939 187.828 53.8304 187.795 53.5888C187.213 49.8881 188.058 37.0619 188.058 37.0619C188.058 37.0619 188.64 36.7654 189.244 36.7215C190.385 36.6336 190.813 37.3913 190.813 37.3913C190.813 37.3913 192.788 48.6801 193.436 51.0082Z" fill="#B56F40"/>
<path d="M221.19 95.6472L220.005 96.1414C218.117 96.8112 216.076 95.9108 215.462 94C214.628 91.4304 214.54 88.6521 214.233 86.368C214.079 85.2479 213.903 82.9309 213.223 81.1299L214.408 121.025C196.608 122.288 187.927 112.053 187.927 112.053C187.466 101.248 191.779 76.9131 193.348 68.4794C192.591 66.7664 187.202 61.8467 186.303 57.015C185.885 54.7748 187.191 53.1825 188.783 52.1173C190.78 50.7666 193.227 50.2395 193.227 50.2395L198.978 57.9374C199.219 58.2119 199.395 58.4315 199.461 58.5633C199.9 59.4638 202.205 60.9682 202.205 60.9682C202.194 61.0122 202.457 73.9372 202.918 74.3545C203.598 74.1019 208.131 65.0094 209.14 61.9785C210.589 62.3738 212.147 62.9119 213.794 63.6367C213.794 63.6367 216.91 65.2949 217.349 72.5535C217.722 78.7031 221.476 86.5547 222.332 93.6816C222.441 94.5161 221.97 95.3288 221.19 95.6472Z" fill="#29C6F9"/>
<path d="M201.579 60.518C201.579 60.518 201.996 73.0477 202.534 76.1883L210.523 62.3848L209.426 61.9785L203.115 73.421L202.49 60.9682L201.579 60.518Z" fill="#C94C43"/>
<path d="M203.313 60.0348C203.313 60.0348 202.325 60.1995 201.82 60.6937C201.82 60.6937 202.567 63.1206 204.553 63.8453L205.409 62.7472C205.398 62.7472 203.774 61.682 203.313 60.0348Z" fill="white"/>
<path d="M205.398 62.7472C205.398 62.7472 208.646 62.3299 209.129 60.7596C209.129 60.7596 209.777 61.4404 209.755 62.5386C209.755 62.5386 208.723 64.0869 206.155 64.1089L205.398 62.7472Z" fill="white"/>
<path d="M201.228 78.11C201.555 78.11 201.82 77.8446 201.82 77.517C201.82 77.1895 201.555 76.924 201.228 76.924C200.9 76.924 200.635 77.1895 200.635 77.517C200.635 77.8446 200.9 78.11 201.228 78.11Z" fill="#11ACDE"/>
<path d="M199.527 82.843C199.527 82.5136 199.79 82.25 200.119 82.25C200.448 82.25 200.712 82.5136 200.712 82.843C200.712 83.1724 200.448 83.436 200.119 83.436C199.79 83.436 199.527 83.1615 199.527 82.843Z" fill="#11ACDE"/>
<path d="M199.549 53.1825L199.746 52.9958C197.771 50.9093 198.693 48.1421 198.934 47.5051C198.967 47.4283 198.945 47.3294 198.89 47.2745C198.824 47.2086 198.726 47.2306 198.693 47.3185C198.407 48.0542 197.485 51.0082 199.549 53.1825Z" fill="#EFCBAB"/>
<path d="M199.746 52.9958L200.064 53.1825L199.713 53.49L199.549 53.1825L199.746 52.9958Z" fill="#D8A987"/>
<path d="M200.064 53.1825C200.064 53.1825 200.438 53.5558 200.591 53.49C200.591 53.49 200.383 53.8633 200.174 53.8743C200.174 53.8743 199.812 53.6876 199.713 53.5009L200.064 53.1825Z" fill="#EFCBAB"/>
<path d="M203.609 51.0192C203.609 51.0192 204.992 51.118 205.398 50.4152C205.398 50.4152 206.517 50.7007 207.022 50.2724C207.022 50.2724 208.756 50.6238 208.8 49.921C208.8 49.921 210.128 52.5785 211.577 52.0185C213.025 51.4584 209.25 48.779 209.25 48.779L204.311 49.4379L203.609 51.0192Z" fill="#C94C43"/>
<path d="M203.708 49.0315L203.423 50.2615C203.423 50.2615 207.286 48.8888 211.994 51.6231L211.939 49.6355C211.928 49.2512 211.752 48.8888 211.456 48.6362C210.6 47.9334 208.57 46.5608 204.795 47.6479C204.257 47.8016 203.829 48.4935 203.708 49.0315Z" fill="#29C6F9"/>
<path d="M186.851 33.8334C186.84 33.7566 186.588 33.2295 186.928 32.7353C187.279 32.2411 189.562 31.4834 189.77 31.8897C189.979 32.2851 189.847 33.6687 189.112 33.9762C188.388 34.2837 186.906 34.1409 186.851 33.8334Z" fill="#B56F40"/>
<path d="M193.359 68.4794C192.602 66.7664 187.213 61.8467 186.313 57.015C185.896 54.7748 187.202 53.1825 188.794 52.1173C188.794 52.1173 188.047 55.5105 190.165 58.5743C192.284 61.6271 193.359 68.4794 193.359 68.4794Z" fill="#11ACDE"/>
<path d="M220.005 96.1414C218.117 96.8112 216.076 95.9108 215.462 94C214.628 91.4304 214.54 88.6521 214.232 86.368C214.079 85.2479 213.903 82.9308 213.223 81.1299C213.289 81.2287 215.33 84.4682 217.174 89.7063C219.039 95.0323 218.458 95.8119 220.005 96.1414Z" fill="#11ACDE"/>
<path d="M292.239 140.165H282.197C281.659 139.704 282.57 138.672 283.525 138.606C283.942 138.573 284.458 138.661 285.062 138.793C285.204 136.959 285.983 128.701 288.958 129.041C292.305 129.415 288.958 132.676 288.014 134.609C287.311 136.036 286.576 138.09 286.236 139.056C286.51 139.111 286.785 139.177 287.07 139.221C287.509 137.859 289.166 133.28 291.262 133.544C293.721 133.851 292.733 135.696 290.988 136.783C289.704 137.585 288.134 138.727 287.388 139.276C288.025 139.375 288.683 139.452 289.353 139.43C291.076 139.386 291.91 139.891 292.239 140.165Z" fill="#82B378"/>
<path d="M37.6534 140.165C37.6534 140.165 33.0222 127.449 29.7737 128.525C26.5253 129.612 37.6534 140.165 37.6534 140.165Z" fill="#82B378"/>
<path d="M35.8864 140.165C35.4914 140.165 28.1056 132.5 27.6117 134.499C27.1179 136.52 35.8864 140.165 35.8864 140.165Z" fill="#82B378"/>
<path d="M43.7661 140.165C43.7661 140.165 40.7152 137.365 36.8412 138.09C32.9782 138.815 31.3211 139.616 28.8957 139.067C26.4704 138.518 25.2303 140.165 25.2303 140.165H43.7661Z" fill="#82B378"/>
<path d="M150.251 108.484C150.965 107.364 144.962 95.0213 148.188 88.147C148.594 87.2904 156.068 88.5752 156.068 88.5752C156.068 88.5752 157.593 105.937 156.737 110.538C156.134 113.788 154.937 123.364 154.301 128.712C154.301 128.734 154.301 128.745 154.29 128.767C154.136 130.041 154.016 131.062 153.939 131.699C153.884 132.182 153.939 132.665 154.103 133.126C154.575 134.433 155.618 137.135 156.134 137.508C156.134 137.508 153.302 138.321 152.765 138.002C152.216 137.684 150.844 132.698 150.844 132.698C151.085 132.237 151.173 131.71 151.085 131.194C150.976 130.513 150.811 129.448 150.635 128.141C148.188 118.225 148.55 111.153 150.251 108.484Z" fill="#FFB27D"/>
<path d="M134.262 130.645C134.657 130.293 134.92 129.832 135.019 129.316C135.161 128.646 135.381 127.592 135.677 126.296C136.884 116.193 139.727 109.703 142.262 107.804C143.326 107.013 142.064 93.3411 147.508 88.0481C148.188 87.3893 154.729 91.2327 154.729 91.2327C154.729 91.2327 150.032 108.012 147.607 112.009C145.894 114.832 141.395 123.375 138.904 128.141C138.3 129.294 137.817 130.227 137.51 130.809C137.291 131.238 137.17 131.721 137.159 132.204C137.148 133.599 136.961 137.321 137.51 137.651C137.85 137.848 138.147 138.079 138.388 138.299C138.388 138.299 135.809 138.079 135.491 138.057C135.183 138.046 133.197 131.842 133.164 131.721C133.57 131.293 133.976 130.897 134.262 130.645Z" fill="#FFB27D"/>
<path d="M131.891 134.005L131.244 137.804L131.584 138.057L133.614 135.125L131.891 134.005Z" fill="#11ACDE"/>
<path d="M131.968 134.29C134.185 135.454 134.514 139.331 134.865 140.165L138.915 140.176C139.529 139.968 139.288 139.1 138.41 138.288C138.41 138.288 135.831 138.068 135.513 138.046C135.205 138.035 133.219 131.831 133.186 131.71C132.242 132.731 131.342 133.972 131.968 134.29Z" fill="#29C6F9"/>
<path d="M135.502 121.442C135.677 126.296 145.324 125.363 145.324 125.363L146.597 119.191L147.442 115.095L147.727 113.733L147.299 113.536L141.165 110.626L139.244 109.714L139.167 109.956L135.864 120.322L135.502 121.442Z" fill="#F99746"/>
<path d="M135.864 120.322C138.651 117.456 146.608 119.191 146.608 119.191L147.453 115.095L147.31 113.536L141.175 110.626L139.178 109.956L135.864 120.322Z" fill="#EF7E29"/>
<path d="M150.098 136.542L150.625 140.165H151.217L151.491 137.365L150.098 136.542Z" fill="#11ACDE"/>
<path d="M150.098 136.542C151.327 137.113 152.677 139.507 153.302 140.165L158.416 140.198C159.053 139.671 156.825 137.98 156.134 137.486C156.134 137.486 153.302 138.299 152.765 137.98C152.216 137.662 150.844 132.676 150.844 132.676C150.229 133.84 149.198 136.124 150.098 136.542Z" fill="#29C6F9"/>
<path d="M147.727 111.954L149 125.89C151.36 128.877 157.582 127.043 157.582 127.043C157.582 127.043 158.054 115.534 158.296 115.084L157.396 114.821L147.727 111.954Z" fill="#F99746"/>
<path d="M147.727 111.954L149 125.89C149.066 119.037 157.933 119.718 157.933 119.718L157.396 114.81L147.727 111.954Z" fill="#EF7E29"/>
<path d="M158.592 46.4949L145.587 41.3336L138.311 48.3617L150.668 53.1825L158.592 46.4949Z" fill="#11ACDE"/>
<path d="M152.501 48.8668C152.501 48.8668 152.523 50.4152 153.664 50.8984C156.024 51.8977 153.774 53.0617 156.09 54.6869C156.617 55.0603 157.001 57.3993 153.324 57.7507C149.648 58.1021 149.187 58.4096 149.187 58.4096C149.187 58.4096 146.454 60.1666 143.436 58.3547C141.68 57.3115 143.886 54.4014 143.085 53.6657C141.999 52.6664 141.856 49.4049 143.436 48.0542C145.017 46.7035 147.53 45.9238 147.53 45.9238L152.501 48.8668Z" fill="#132644"/>
<path d="M162.817 52.2491L162.916 51.9196C159.437 50.8874 158.691 47.2745 158.559 46.429C158.548 46.3192 158.46 46.2313 158.362 46.2094C158.252 46.1764 158.153 46.2753 158.175 46.3851C158.329 47.3514 159.185 51.1619 162.817 52.2491Z" fill="#EFCBAB"/>
<path d="M162.916 51.9196H163.377L163.201 52.4797L162.817 52.2491L162.916 51.9196Z" fill="#D8A987"/>
<path d="M163.377 51.9196C163.377 51.9196 164.013 52.0953 164.156 51.9196C164.156 51.9196 164.167 52.4577 163.947 52.6005C163.947 52.6005 163.432 52.6224 163.212 52.4797L163.377 51.9196Z" fill="#EFCBAB"/>
<path d="M153.291 58.7171C153.028 58.6841 152.249 58.0582 151.898 57.1028C151.47 55.9498 151.107 54.7089 151.107 54.7089L149.977 54.8956L146.959 55.3897L146.707 55.4337C146.948 56.0706 147.135 56.6745 147.255 57.2236C147.497 58.2229 147.563 59.0685 147.541 59.7054C147.508 60.3533 147.179 60.518 146.992 60.6498C146.904 60.7047 150.175 71.4334 151.755 70.8953C153.138 70.4341 153.423 58.6841 153.291 58.7171Z" fill="#FFB27D"/>
<path d="M147.552 59.7054C149.362 58.9696 151.118 54.7089 151.118 54.7089C150.756 54.665 150.372 54.7418 149.988 54.8956C148.989 55.3019 147.969 56.2572 147.277 57.2236C147.508 58.2229 147.574 59.0685 147.552 59.7054Z" fill="#ED975D"/>
<path d="M146.388 57.9703C146.388 57.9703 151.777 57.0918 151.184 53.7425C150.592 50.3932 150.888 48.0213 147.42 48.4386C143.952 48.8559 143.513 50.2505 143.436 51.4255C143.359 52.5895 144.973 58.1131 146.388 57.9703Z" fill="#FFB27D"/>
<path d="M145.905 61.078C145.905 61.078 136.808 58.3437 136.16 57.575C135.513 56.8173 133.943 46.6925 133.943 45.243L132.615 45.4297C132.615 45.4297 131.639 56.9381 132.769 59.5407C133.91 62.1542 145.379 66.2612 145.379 66.2612L145.905 61.078Z" fill="#FFB27D"/>
<path d="M153.017 58.5963C153.017 58.5963 151.898 62.0773 147.53 59.8921L152.128 70.0058L153.324 60.9682L153.017 58.5963Z" fill="#F99746"/>
<path d="M156.737 59.6175C156.737 59.6175 156.189 61.4295 166.724 67.1727L174.494 61.8467L175.427 62.6264C175.427 62.6264 167.975 71.6091 166.812 71.4224C165.649 71.2358 157.648 65.9647 157.648 65.9647L156.737 59.6175Z" fill="#FFB27D"/>
<path d="M128.105 104.564C128.105 104.564 128.39 105.464 129.038 106.771C130.157 109.011 132.363 112.449 136.039 114.502C140.221 116.841 153.752 121.311 163.048 119.147C163.048 119.147 162.17 89.7173 160.216 77.6159C160.172 77.3304 160.128 77.0668 160.085 76.8033C160.655 78.9776 163.563 79.6914 164.749 79.285C167.372 78.4065 168.282 76.364 168.403 74.2117C168.59 70.8953 166.922 67.2935 166.724 67.1836C162.433 64.7458 161.632 60.8694 159.547 59.4857C157.681 58.2558 153.236 58.5743 153.017 58.5963L152.04 68.2708L147.519 59.8921C147.508 59.8921 140.232 59.2551 136.149 57.586C136.149 57.586 123.968 74.4533 139.057 74.2336C139.057 78.121 137.247 81.646 135.491 86.8951C133.768 92.1002 128.105 104.564 128.105 104.564Z" fill="#29C6F9"/>
<path d="M147.563 55.5325C147.563 55.5325 147.508 56.0815 147.157 56.2133C146.816 56.3451 145.894 56.5977 145.807 56.5428C145.708 56.4879 145.357 56.0706 145.357 56.0706C145.357 56.0706 146.794 55.4776 147.563 55.5325Z" fill="white"/>
<path d="M133.976 45.254C133.976 45.254 134.536 44.8696 134.24 43.8045C134.042 43.0907 134.174 42.5087 134.02 42.5306C133.856 42.5526 133.735 43.475 133.636 43.7056C133.559 43.9033 132.341 41.6082 132.034 41.7839C131.726 41.9596 131.123 42.871 132.572 46.0007L133.976 45.254Z" fill="#FFB27D"/>
<path d="M174.494 61.8577C174.494 61.8577 175.317 59.8921 175.602 59.4858C176.151 58.6841 177.698 58.179 177.808 58.5414C177.907 58.8928 176.81 59.4199 176.766 60.2325C176.755 60.4631 177.216 60.0238 177.501 59.8481C177.676 59.7493 177.775 59.8262 177.687 59.9579C177.227 60.6278 176.985 61.3087 176.546 61.5612C176.107 61.8138 175.438 62.6374 175.438 62.6374L174.494 61.8577Z" fill="#FFB27D"/>
<path d="M153.017 58.5963L152.051 68.2598L147.552 59.7054H145.905L152.534 71.7628L154.235 58.5414L153.017 58.5963Z" fill="#AA443E"/>
<path d="M144.161 48.5594C144.161 48.5594 142.58 50.4262 147.563 51.3376C149.165 51.6341 149.966 53.1825 149.527 54.4893C148.88 56.422 150.515 58.5194 152.918 57.7617C154.828 57.1687 151.711 48.2189 150.01 48.0762C148.32 47.9334 144.161 48.5594 144.161 48.5594Z" fill="#132644"/>
<path d="M145.905 48.9876C145.905 48.9876 144.303 50.1407 144.171 51.0631C144.04 51.9855 143.667 53.3033 143.052 52.3699C142.438 51.4365 142.339 50.1846 143.052 49.328C143.765 48.4825 145.357 48.0981 145.697 48.3837C146.048 48.6801 145.905 48.9876 145.905 48.9876Z" fill="#132644"/>
<path d="M143.085 48.4605C143.085 48.4605 146.136 45.825 152.633 49.7014L152.721 48.0981C152.468 47.1428 152.172 47.1537 151.294 46.6925C150.317 46.1654 148.803 45.6603 146.652 45.6713C145.17 45.6823 144.303 45.4956 143.634 46.8133L143.085 48.4605Z" fill="#29C6F9"/>
<path d="M183.537 66.8542C183.537 66.8542 184.108 66.2283 184.612 65.5035C184.843 65.1631 185.062 64.8117 185.194 64.4932C185.271 64.3066 185.326 64.1308 185.337 63.9771C185.337 63.9771 177.227 59.0575 176.491 58.4096C175.756 57.7507 169.127 52.5565 169.127 52.5565C169.127 52.5565 168.688 52.9848 168.195 53.6217C168.008 53.8523 167.821 54.1159 167.646 54.4014C167.317 54.9175 167.042 55.4886 166.944 56.0266C166.944 56.0266 175.438 60.2325 176.195 60.9902C176.974 61.7589 183.537 66.8542 183.537 66.8542Z" fill="#EFCBAB"/>
<path d="M184.612 65.5035C184.843 65.1631 185.062 64.8117 185.194 64.4932C185.271 64.3066 185.326 64.1309 185.337 63.9771C185.337 63.9771 177.227 59.0575 176.491 58.4096C175.756 57.7507 169.127 52.5565 169.127 52.5565C169.127 52.5565 168.688 52.9848 168.195 53.6217C168.008 53.8523 167.821 54.1159 167.646 54.4014C170.038 55.5984 176.502 58.8598 177.194 59.5626C177.885 60.2435 182.648 63.9661 184.612 65.5035Z" fill="#DDB08E"/>
<path d="M175.207 57.3444C175.207 57.3444 177.457 58.3986 178.039 59.4528L176.766 61.4843C176.766 61.4843 174.702 60.507 173.825 59.5516L175.207 57.3444Z" fill="#C94C43"/>
<path d="M176.535 61.5612C176.535 61.5612 177.106 61.3306 177.446 60.9023C177.786 60.4741 178.247 59.7822 177.677 59.9579C177.106 60.1336 176.085 60.8474 175.701 60.9133C175.317 60.9792 175.46 61.2757 175.427 61.3636C175.394 61.4514 176.535 61.5612 176.535 61.5612Z" fill="#FFB27D"/>
<path d="M128.105 104.564C128.105 104.564 128.39 105.464 129.038 106.771C131.485 104.191 134.887 100.073 137.258 95.1201C141.351 86.5766 139.068 74.2337 139.068 74.2337C139.068 78.1211 137.258 81.646 135.502 86.8951C133.768 92.1002 128.105 104.564 128.105 104.564Z" fill="#11ACDE"/>
<path d="M153.324 75.2549C153.324 75.0353 153.138 74.8486 152.918 74.8486C152.699 74.8486 152.512 75.0353 152.512 75.2549C152.512 75.4745 152.699 75.6612 152.918 75.6612C153.138 75.6612 153.324 75.4745 153.324 75.2549Z" fill="#11ACDE"/>
<path d="M153.324 82.6563C153.324 82.4367 153.138 82.25 152.918 82.25C152.699 82.25 152.512 82.4367 152.512 82.6563C152.512 82.8759 152.699 83.0626 152.918 83.0626C153.138 83.0626 153.324 82.8869 153.324 82.6563Z" fill="#11ACDE"/>
<path d="M160.216 77.6049C160.172 77.3194 160.128 77.0558 160.084 76.7923C160.655 78.9666 163.563 79.6803 164.749 79.274C167.372 78.3955 168.282 76.353 168.403 74.2007C168.118 74.3434 163.871 76.5177 161.895 75.2439C159.876 73.9481 158.636 70.9942 158.592 70.9063L160.216 77.6049Z" fill="#11ACDE"/>
<path d="M245.85 37.8636C245.85 37.8636 244.654 38.764 243.271 38.6872C242.25 38.6323 241.197 37.7318 241.153 37.6769L240.407 39.1264C240.407 39.1264 242.316 40.1696 243.896 39.7853C244.379 39.6645 245.148 39.1484 245.488 38.764C245.872 38.3358 245.85 37.8636 245.85 37.8636Z" fill="#6BB7BF"/>
<path d="M245.685 34.9206L247.683 33.9762C247.683 33.9762 247.595 38.2369 244.16 39.6974C244.149 39.6974 246.234 36.6885 245.685 34.9206Z" fill="#86D1CD"/>
<path d="M33.538 76.5947C33.538 76.5947 32.3417 77.4951 30.959 77.4183C29.9383 77.3634 28.8848 76.4629 28.8409 76.408L28.0946 77.8575C28.0946 77.8575 30.0042 78.9007 31.5845 78.5164C32.0674 78.3956 32.8356 77.8795 33.1758 77.4951C33.5599 77.0778 33.538 76.5947 33.538 76.5947Z" fill="#6BB7BF"/>
<path d="M33.3734 73.6516L35.3707 72.7072C35.3707 72.7072 35.2829 76.968 31.8479 78.4285C31.8479 78.4285 33.9221 75.4196 33.3734 73.6516Z" fill="#86D1CD"/>
<path d="M194.577 10.1577C194.577 10.1577 197.485 8.13717 199.669 11.146L202.073 10.1138C202.073 10.1138 200.888 8.24698 196.245 9.07058C193.194 9.61964 194.577 10.1577 194.577 10.1577Z" fill="#5685D8"/>
<path d="M191.713 12.1355C191.713 12.1355 192.503 8.86302 198.473 8.86302C198.473 8.86302 196.234 9.07167 194.489 11.9817L191.713 12.1355Z" fill="#739AF0"/>
<path d="M175.504 23.2914C175.504 23.2914 173.901 22.2811 173.726 21.0512C173.726 21.0512 172.156 21.139 171.827 21.6442C171.827 21.6442 172.54 23.6757 173.396 24.0601C173.385 24.0601 175.295 24.1809 175.504 23.2914Z" fill="#ED7D2B"/>
<path d="M282.011 108.836C282.011 108.836 280.409 107.825 280.233 106.596C280.233 106.596 278.664 106.683 278.334 107.189C278.334 107.189 279.048 109.22 279.904 109.604C279.904 109.604 281.802 109.725 282.011 108.836Z" fill="#ED7D2B"/>
<path d="M19.765 106.003C19.765 106.003 18.1627 104.992 17.9872 103.762C17.9872 103.762 16.4178 103.85 16.0886 104.355C16.0886 104.355 16.8019 106.387 17.6579 106.771C17.6579 106.76 19.5565 106.881 19.765 106.003Z" fill="#ED7D2B"/>
</g>
<defs>
<clipPath id="clip0">
<rect width="315" height="141" fill="white"/>
</clipPath>
</defs>
</svg>
