<svg width="243" height="181" viewBox="0 0 243 181" fill="none" xmlns="http://www.w3.org/2000/svg">
<path d="M243 159.043H0V159.14H243V159.043Z" fill="#EBEBEB"/>
<path d="M218.651 166.864H208.105V166.961H218.651V166.864Z" fill="#EBEBEB"/>
<path d="M167.524 164.386H150.952V164.484H167.524V164.386Z" fill="#EBEBEB"/>
<path d="M214.375 162.395H192.748V162.492H214.375V162.395Z" fill="#EBEBEB"/>
<path d="M84.078 164.824H78.6834V164.921H84.078V164.824Z" fill="#EBEBEB"/>
<path d="M74.358 164.824H55.6956V164.921H74.358V164.824Z" fill="#EBEBEB"/>
<path d="M45.684 162.783H32.2218V162.881H45.684V162.783Z" fill="#EBEBEB"/>
<path d="M115.182 137.377H21.3354C19.8288 137.377 18.5652 136.114 18.5652 134.608V2.76892C18.5652 1.26302 19.8288 0 21.3354 0H115.182C116.689 0 117.952 1.26302 117.952 2.76892V134.608C117.952 136.163 116.737 137.377 115.182 137.377ZM21.3354 0.0971551C19.8774 0.0971551 18.6624 1.26302 18.6624 2.76892V134.608C18.6624 136.066 19.8288 137.28 21.3354 137.28H115.182C116.64 137.28 117.855 136.114 117.855 134.608V2.76892C117.855 1.31159 116.689 0.0971551 115.182 0.0971551H21.3354Z" fill="#EBEBEB"/>
<path d="M220.304 137.377H126.457C124.951 137.377 123.687 136.114 123.687 134.608V2.76892C123.687 1.26302 124.951 0 126.457 0H220.304C221.81 0 223.074 1.26302 223.074 2.76892V134.608C223.074 136.163 221.859 137.377 220.304 137.377ZM126.457 0.0971551C124.999 0.0971551 123.784 1.26302 123.784 2.76892V134.608C123.784 136.066 124.951 137.28 126.457 137.28H220.304C221.762 137.28 222.977 136.114 222.977 134.608V2.76892C222.977 1.31159 221.81 0.0971551 220.304 0.0971551H126.457Z" fill="#EBEBEB"/>
<path d="M55.89 58.1473C61.479 58.1473 66.0474 53.5811 66.0474 47.9946C66.0474 42.4082 61.479 37.8419 55.89 37.8419H54.6264V58.1473H55.89Z" fill="#E0E0E0"/>
<path d="M54.6264 58.1473C60.2362 58.1473 64.7838 53.6018 64.7838 47.9946C64.7838 42.3874 60.2362 37.8419 54.6264 37.8419C49.0166 37.8419 44.469 42.3874 44.469 47.9946C44.469 53.6018 49.0166 58.1473 54.6264 58.1473Z" fill="#F5F5F5"/>
<path d="M54.189 49.2576C46.7046 49.2576 40.581 43.1369 40.581 35.6559V27.5435C40.581 26.8148 41.1642 26.2805 41.8446 26.2805C42.5736 26.2805 43.1082 26.8634 43.1082 27.5435V35.6559C43.1082 41.7281 48.0654 46.683 54.1404 46.683C54.8694 46.683 55.404 47.266 55.404 47.946C55.4526 48.6747 54.8694 49.2576 54.189 49.2576Z" fill="#E0E0E0"/>
<path d="M30.5208 34.6844H53.1198C54.675 34.6844 55.7928 33.227 55.404 31.7211L53.46 24.3374C53.1684 23.3172 52.245 22.5886 51.1758 22.5886H32.5134C31.4442 22.5886 30.5208 23.3172 30.2292 24.3374L28.2852 31.7211C27.8478 33.227 28.9656 34.6844 30.5208 34.6844Z" fill="#F5F5F5"/>
<path d="M199.406 58.1473C204.995 58.1473 209.563 53.5811 209.563 47.9946C209.563 42.4082 204.995 37.8419 199.406 37.8419H198.142V58.1473H199.406Z" fill="#E0E0E0"/>
<path d="M198.142 58.1473C203.752 58.1473 208.3 53.6018 208.3 47.9946C208.3 42.3874 203.752 37.8419 198.142 37.8419C192.532 37.8419 187.985 42.3874 187.985 47.9946C187.985 53.6018 192.532 58.1473 198.142 58.1473Z" fill="#F5F5F5"/>
<path d="M197.705 49.2576C190.22 49.2576 184.097 43.1369 184.097 35.6559V27.5435C184.097 26.8148 184.68 26.2805 185.36 26.2805C186.089 26.2805 186.624 26.8634 186.624 27.5435V35.6559C186.624 41.7281 191.581 46.683 197.656 46.683C198.385 46.683 198.92 47.266 198.92 47.946C198.968 48.6747 198.385 49.2576 197.705 49.2576Z" fill="#E0E0E0"/>
<path d="M174.037 34.6844H196.636C198.191 34.6844 199.309 33.227 198.92 31.7211L196.976 24.3374C196.684 23.3172 195.761 22.5886 194.692 22.5886H175.981C174.911 22.5886 173.988 23.3172 173.696 24.3374L171.752 31.7211C171.364 33.227 172.481 34.6844 174.037 34.6844Z" fill="#F5F5F5"/>
<path d="M65.1089 126.725H72.4962V98.1128H65.1089V126.725Z" fill="#E6E6E6"/>
<path d="M45.1008 126.739H69.5952L73.2888 93.2203H48.7944L45.1008 126.739Z" fill="#F0F0F0"/>
<path d="M42.4278 126.739H67.7484L71.442 93.2203H46.1214L42.4278 126.739Z" fill="#F5F5F5"/>
<path d="M65.9016 124.116L69.0606 95.8921H47.9682L44.8578 124.116H65.9016Z" fill="white"/>
<path d="M61.5762 117.266L61.722 116.1C62.4996 109.008 58.077 102.693 52.3422 102.693L52.1964 103.859C51.4188 110.951 55.8414 117.266 61.5762 117.266Z" fill="#F5F5F5"/>
<path d="M28.7259 159.066H50.4987L50.4987 126.761H28.7259L28.7259 159.066Z" fill="#E6E6E6"/>
<path d="M30.9096 159.043H28.7226V152.825H33.1938L30.9096 159.043Z" fill="#F0F0F0"/>
<path d="M89.7866 159.066H111.559V126.761H89.7866V159.066Z" fill="#E6E6E6"/>
<path d="M28.7099 155.241H91.6955V126.726H28.7099V155.241Z" fill="#F0F0F0"/>
<path d="M89.5212 159.043H91.7082V152.825H87.237L89.5212 159.043Z" fill="#F0F0F0"/>
<path d="M30.4109 140.008H89.9944V128.496H30.4109V140.008Z" fill="#E6E6E6"/>
<path d="M56.2302 136.017H64.2006C67.6512 136.017 70.956 134.608 73.3374 132.082H47.0934C49.4748 134.608 52.7796 136.017 56.2302 136.017Z" fill="#F0F0F0"/>
<path d="M30.4109 153.369H89.9944V141.856H30.4109V153.369Z" fill="#E6E6E6"/>
<path d="M56.2302 149.376H64.2006C67.6512 149.376 70.956 147.967 73.3374 145.441H47.0934C49.4748 147.967 52.7796 149.376 56.2302 149.376Z" fill="#F0F0F0"/>
<path d="M87.723 125.427H88.3062C88.3062 124.261 88.3062 121.347 88.3548 114.594C88.452 102.401 88.6464 101.624 88.6464 101.624L87.2856 107.259C86.4594 113.526 87.5286 119.792 87.723 125.427Z" fill="#E6E6E6"/>
<path d="M86.6052 106.433C84.6612 104.15 80.5302 103.47 76.3506 102.887C74.6982 102.644 80.7246 106.433 83.6406 109.154C85.9248 111.243 87.3828 111.826 88.0146 113.914C88.3062 111.291 88.2576 108.425 86.6052 106.433Z" fill="#E6E6E6"/>
<path d="M89.181 110.514C91.125 108.231 95.256 107.551 99.4356 106.968C101.088 106.725 95.0616 110.514 92.1456 113.234C89.8614 115.323 88.4034 115.906 87.7716 117.995C87.4314 115.372 87.48 112.506 89.181 110.514Z" fill="#E6E6E6"/>
<path d="M88.3548 101.09C89.8128 98.321 93.4578 95.7464 97.5402 94.7748C99.144 94.3862 93.8466 99.8269 91.8054 103.373C90.2502 106.093 88.1604 109.3 87.8202 111.631C87.2856 107.065 86.8968 103.81 88.3548 101.09Z" fill="#E6E6E6"/>
<path d="M88.1604 126.739C86.4594 126.739 85.0014 125.864 84.9042 124.747L84.6126 122.853H91.6596L91.368 124.747C91.3194 125.864 89.91 126.739 88.1604 126.739Z" fill="#F0F0F0"/>
<path d="M92.1456 123.63H84.1752L83.9322 121.492H92.3886L92.1456 123.63Z" fill="#F0F0F0"/>
<path d="M82.4189 83.4608L160.276 83.4608V12.489L82.4189 12.489L82.4189 83.4608Z" fill="#E6E6E6"/>
<path d="M80.6827 83.4608L159.512 83.4608V12.489L80.6827 12.489L80.6827 83.4608Z" fill="#F5F5F5"/>
<path d="M156.328 80.2248V15.6166L83.7678 15.6166L83.7678 80.2248L156.328 80.2248Z" fill="#FAFAFA"/>
<path d="M147.452 80.2501L118.876 15.642H109.204L137.732 80.2501H147.452Z" fill="white"/>
<path d="M135.011 80.2501L106.434 15.642H99.7758L128.304 80.2501H135.011Z" fill="white"/>
<path d="M110.754 80.2605L110.754 15.6524H107.011L107.011 80.2605H110.754Z" fill="#E6E6E6"/>
<path d="M135.695 80.2511V15.6429H131.953V80.2511H135.695Z" fill="#E6E6E6"/>
<path d="M110.04 82.2788L110.04 13.2501H105.277L105.277 82.2788H110.04Z" fill="#F5F5F5"/>
<path d="M134.981 82.3179V13.2892H130.218V82.3179H134.981Z" fill="#F5F5F5"/>
<path d="M84.1045 80.2282L84.1045 15.62H83.7643L83.7643 80.2282H84.1045Z" fill="#E6E6E6"/>
<path d="M79.3152 8.35535H163.685C163.928 8.35535 164.074 8.54966 164.074 8.74397C164.074 8.98686 163.879 9.13259 163.685 9.13259H79.3152C79.0722 9.13259 78.9264 8.93828 78.9264 8.74397C78.9264 8.54966 79.1208 8.35535 79.3152 8.35535Z" fill="#E6E6E6"/>
<path d="M160.234 11.0271C160.526 11.0271 160.769 10.7842 160.769 10.4928V9.32689C160.769 9.03543 160.526 8.79254 160.234 8.79254C159.943 8.79254 159.7 9.03543 159.7 9.32689V10.4928C159.7 10.7842 159.943 11.0271 160.234 11.0271Z" fill="#E6E6E6"/>
<path d="M85.4388 11.0271C85.7304 11.0271 85.9734 10.7842 85.9734 10.4928V9.32689C85.9734 9.03543 85.7304 8.79254 85.4388 8.79254C85.1472 8.79254 84.9042 9.03543 84.9042 9.32689V10.4928C84.9042 10.7842 85.1472 11.0271 85.4388 11.0271Z" fill="#E6E6E6"/>
<path opacity="0.6" d="M79.4582 64.3393L158.239 64.3393V8.76656L79.4582 8.76656V64.3393Z" fill="#E0E0E0"/>
<path d="M165.386 111.097H151.778C150.32 111.097 149.153 109.931 149.153 108.474V102.207C149.153 100.75 150.32 99.584 151.778 99.584H165.386C166.844 99.584 168.01 100.75 168.01 102.207V108.474C168.01 109.931 166.844 111.097 165.386 111.097Z" fill="#FAFAFA"/>
<path d="M167.135 99.924H150.077C149.591 99.924 149.202 99.5354 149.202 99.0496V98.321C149.202 97.8352 149.591 97.4466 150.077 97.4466H167.135C167.621 97.4466 168.01 97.8352 168.01 98.321V99.0496C168.01 99.5354 167.621 99.924 167.135 99.924Z" fill="#E6E6E6"/>
<path d="M149.445 123.873C149.445 123.873 149.688 131.985 159.116 131.985C168.545 131.985 168.788 123.873 168.788 123.873H149.445Z" fill="#F0F0F0"/>
<path d="M170.975 123.873C170.975 123.873 171.218 131.985 180.646 131.985C190.075 131.985 190.318 123.873 190.318 123.873H170.975Z" fill="#F0F0F0"/>
<path d="M185.652 111.097H166.99C164.997 111.097 163.393 109.494 163.393 107.502V97.981C163.393 95.9893 164.997 94.3862 166.99 94.3862H185.652C187.645 94.3862 189.248 95.9893 189.248 97.981V107.502C189.248 109.494 187.645 111.097 185.652 111.097Z" fill="#F0F0F0"/>
<path d="M188.082 94.8234H164.657C163.976 94.8234 163.442 94.2891 163.442 93.609V92.6374C163.442 91.9573 163.976 91.423 164.657 91.423H188.082C188.762 91.423 189.297 91.9573 189.297 92.6374V93.609C189.248 94.2891 188.714 94.8234 188.082 94.8234Z" fill="#F5F5F5"/>
<path d="M142.364 159.066H144.794V118.941H142.364V159.066Z" fill="#E6E6E6"/>
<path d="M213.062 111.097H199.795V118.918H213.062V111.097Z" fill="#E6E6E6"/>
<path d="M133.88 118.928L199.831 118.928V111.107L133.88 111.107V118.928Z" fill="#F5F5F5"/>
<path d="M213.062 131.985H199.795V139.806H213.062V131.985Z" fill="#E6E6E6"/>
<path d="M133.88 139.765H199.831V131.944H133.88V139.765Z" fill="#F5F5F5"/>
<path d="M208.296 159.066H210.726V118.941H208.296V159.066Z" fill="#E6E6E6"/>
<path d="M197.373 159.066H199.803V118.941H197.373V159.066Z" fill="#F5F5F5"/>
<path d="M133.908 159.066H136.338V118.941H133.908V159.066Z" fill="#F5F5F5"/>
<path d="M121.5 181C173.545 181 215.735 178.542 215.735 175.511C215.735 172.479 173.545 170.021 121.5 170.021C69.4552 170.021 27.2646 172.479 27.2646 175.511C27.2646 178.542 69.4552 181 121.5 181Z" fill="#F5F5F5"/>
<path d="M126.554 150.833H64.5408C62.4996 150.833 60.75 149.182 60.6528 147.141L55.1124 39.5421C55.0152 37.5019 56.5704 35.8503 58.6116 35.8503H120.625C122.666 35.8503 124.416 37.5019 124.513 39.5421L130.054 147.19C130.199 149.182 128.596 150.833 126.554 150.833Z" fill="#29C6F9"/>
<path opacity="0.8" d="M126.554 150.833H64.5408C62.4996 150.833 60.75 149.182 60.6528 147.141L55.1124 39.5421C55.0152 37.5019 56.5704 35.8503 58.6116 35.8503H120.625C122.666 35.8503 124.416 37.5019 124.513 39.5421L130.054 147.19C130.199 149.182 128.596 150.833 126.554 150.833Z" fill="white"/>
<path d="M114.502 32.3041H107.649V32.7899H114.502V32.3041Z" fill="#29C6F9"/>
<path d="M105.316 32.3041H102.789V32.7899H105.316V32.3041Z" fill="#29C6F9"/>
<path d="M129.227 144.032H69.9354C67.9914 144.032 66.2904 142.429 66.1932 140.486L60.8958 37.5505C60.7986 35.6074 62.3052 34.0043 64.2492 34.0043H123.541C125.485 34.0043 127.186 35.6074 127.283 37.5505L132.581 140.486C132.678 142.429 131.171 144.032 129.227 144.032Z" fill="#29C6F9"/>
<path d="M129.227 141.652H69.9354C69.255 141.652 68.6232 141.069 68.5746 140.341L63.2772 37.4533C63.2772 37.0647 63.423 36.8218 63.5202 36.6761C63.666 36.5303 63.8604 36.3846 64.2492 36.3846H123.541C124.222 36.3846 124.853 36.9675 124.902 37.6962L130.248 140.583C130.248 140.972 130.102 141.215 130.005 141.361C129.811 141.506 129.616 141.652 129.227 141.652ZM64.2492 36.4818C63.909 36.4818 63.7146 36.6275 63.6174 36.7247C63.5202 36.8218 63.3744 37.0647 63.3744 37.4047L68.6718 140.341C68.7204 140.972 69.3036 141.506 69.9354 141.506H129.227C129.568 141.506 129.762 141.361 129.859 141.264C129.956 141.166 130.102 140.924 130.102 140.583L124.805 37.6962C124.756 37.0647 124.173 36.5303 123.541 36.5303H64.2492V36.4818Z" fill="white"/>
<path opacity="0.3" d="M108.507 73.8942C115.251 66.9769 114.811 55.6167 107.526 48.5204C100.24 41.4241 88.8669 41.279 82.1233 48.1963C75.3796 55.1136 75.8191 66.4738 83.1048 73.5701C90.3905 80.6664 101.764 80.8115 108.507 73.8942Z" fill="white"/>
<path d="M109.836 61.062C109.982 63.588 109.447 65.9198 108.427 67.96C106.191 72.4777 101.574 75.5381 96.0336 75.5381C90.4932 75.5381 85.536 72.4777 82.863 67.96C81.648 65.9198 80.8704 63.5395 80.7732 61.062C80.3358 53.0467 86.508 46.5373 94.527 46.5373C102.546 46.5373 109.399 53.0467 109.836 61.062Z" fill="white"/>
<path d="M108.427 67.96C106.191 72.4777 101.574 75.5381 96.0336 75.5381C90.4932 75.5381 85.536 72.4777 82.863 67.96C86.4108 65.5311 90.6876 64.0738 95.4504 64.0738C100.213 64.0738 104.636 65.5311 108.427 67.96Z" fill="#29C6F9"/>
<path d="M99.8103 60.6894C102.246 58.1915 102.085 54.0871 99.451 51.522C96.8174 48.9568 92.7083 48.9023 90.2731 51.4002C87.8379 53.8981 87.9987 58.0025 90.6324 60.5677C93.266 63.1328 97.3751 63.1873 99.8103 60.6894Z" fill="#29C6F9"/>
<path d="M120.722 104.005H74.3094C73.4832 104.005 72.7542 103.324 72.7542 102.499L72.414 95.6978C72.3654 94.872 72.9972 94.1919 73.8234 94.1919H120.236C121.063 94.1919 121.792 94.872 121.792 95.6978L122.132 102.499C122.18 103.324 121.549 104.005 120.722 104.005Z" fill="white"/>
<path opacity="0.3" d="M106.531 90.4028H87.1398C86.3136 90.4028 85.5846 89.7228 85.5846 88.8969L85.4874 87.4396C85.4388 86.6138 86.0706 85.9337 86.8968 85.9337H106.288C107.114 85.9337 107.843 86.6138 107.843 87.4396L107.941 88.8969C107.989 89.7713 107.357 90.4028 106.531 90.4028Z" fill="black"/>
<path opacity="0.3" d="M113.724 136.697H84.6612C83.2518 136.697 82.0368 135.531 81.9882 134.123L81.7938 130.771C81.7452 129.362 82.8144 128.196 84.2238 128.196H113.287C114.696 128.196 115.911 129.362 115.96 130.771L116.154 134.123C116.203 135.531 115.133 136.697 113.724 136.697Z" fill="black"/>
<path d="M121.597 120.424H75.1842C74.358 120.424 73.629 119.744 73.629 118.918L73.2888 112.117C73.2402 111.291 73.872 110.611 74.6982 110.611H121.111C121.937 110.611 122.666 111.291 122.666 112.117L123.007 118.918C123.055 119.744 122.423 120.424 121.597 120.424Z" fill="white"/>
<path d="M80.19 99.0982C80.2386 100.021 79.5096 100.75 78.6348 100.75C77.76 100.75 76.9338 100.021 76.8852 99.0982C76.8366 98.1753 77.5656 97.4466 78.4404 97.4466C79.3152 97.4466 80.1414 98.1753 80.19 99.0982Z" fill="#263238"/>
<path d="M85.293 99.0982C85.3416 100.021 84.6126 100.75 83.7378 100.75C82.8144 100.75 82.0368 100.021 81.9882 99.0982C81.9396 98.1753 82.6686 97.4466 83.5434 97.4466C84.4182 97.4466 85.2444 98.1753 85.293 99.0982Z" fill="#263238"/>
<path d="M90.396 99.0982C90.4446 100.021 89.7156 100.75 88.8408 100.75C87.9174 100.75 87.1398 100.021 87.0912 99.0982C87.0426 98.1753 87.7716 97.4466 88.6464 97.4466C89.5212 97.4466 90.3474 98.1753 90.396 99.0982Z" fill="#263238"/>
<path d="M95.499 99.0982C95.5476 100.021 94.8186 100.75 93.9438 100.75C93.069 100.75 92.2428 100.021 92.1942 99.0982C92.1456 98.1752 92.8746 97.4466 93.7494 97.4466C94.6728 97.398 95.499 98.1752 95.499 99.0982Z" fill="#263238"/>
<path d="M81.0648 115.517C81.1134 116.44 80.3844 117.169 79.5096 117.169C78.5862 117.169 77.8086 116.44 77.76 115.517C77.7114 114.594 78.4404 113.866 79.3152 113.866C80.19 113.866 81.0162 114.594 81.0648 115.517Z" fill="#263238"/>
<path d="M86.1678 115.517C86.2164 116.44 85.4874 117.169 84.6126 117.169C83.6892 117.169 82.9116 116.44 82.863 115.517C82.8144 114.594 83.5434 113.866 84.4182 113.866C85.293 113.866 86.1192 114.594 86.1678 115.517Z" fill="#263238"/>
<path d="M91.2708 115.517C91.3194 116.44 90.5904 117.169 89.7156 117.169C88.7922 117.169 88.0146 116.44 87.966 115.517C87.9174 114.594 88.6464 113.866 89.5212 113.866C90.4446 113.866 91.2222 114.594 91.2708 115.517Z" fill="#263238"/>
<path d="M96.3738 115.517C96.4224 116.44 95.6934 117.169 94.8186 117.169C93.8952 117.169 93.1176 116.44 93.069 115.517C93.0204 114.594 93.7494 113.866 94.6242 113.866C95.5476 113.866 96.3252 114.594 96.3738 115.517Z" fill="#263238"/>
<path d="M101.477 115.517C101.525 116.44 100.796 117.169 99.9216 117.169C99.0468 117.169 98.2206 116.44 98.172 115.517C98.1234 114.594 98.8524 113.866 99.7272 113.866C100.602 113.866 101.428 114.594 101.477 115.517Z" fill="#263238"/>
<path d="M106.58 115.517C106.628 116.44 105.899 117.169 105.025 117.169C104.101 117.169 103.324 116.44 103.275 115.517C103.226 114.594 103.955 113.866 104.83 113.866C105.705 113.866 106.531 114.594 106.58 115.517Z" fill="#263238"/>
<path d="M161.838 59.1189C161.984 59.3132 162.032 59.4103 162.081 59.5075L162.275 59.8475C162.421 60.0904 162.518 60.3333 162.664 60.5762C162.907 61.062 163.15 61.5478 163.345 62.0335C163.782 63.0051 164.122 63.9766 164.414 64.9968C164.997 66.9884 165.386 69.0287 165.58 71.069L165.629 71.4576C165.629 71.5062 165.629 71.6033 165.629 71.7005V71.9434C165.629 72.2834 165.629 72.6234 165.58 72.9635C165.483 73.595 165.337 74.2265 165.094 74.7608C164.657 75.8781 164.074 76.8011 163.393 77.6755C162.081 79.3757 160.574 80.7359 158.873 81.9503L157.513 80.3958C158.728 78.9871 159.894 77.4812 160.72 75.9267C161.158 75.1495 161.498 74.3722 161.692 73.6436C161.789 73.255 161.838 72.9149 161.838 72.6234C161.838 72.4777 161.838 72.332 161.838 72.1862V72.0891C161.838 72.0405 161.838 72.0405 161.838 71.9434L161.789 71.6033C161.449 69.7574 161.06 68.0086 160.477 66.2598C160.186 65.3854 159.845 64.5596 159.505 63.7337C159.311 63.2966 159.116 62.9079 158.922 62.5193L158.63 61.9364L158.485 61.6449L158.339 61.4506L161.838 59.1189Z" fill="#803E3C"/>
<path d="M157.318 81.9989L159.068 85.6908L160.477 82.5333C160.477 82.5333 159.262 79.8129 157.561 80.0558L157.318 81.9989Z" fill="#7F3E3B"/>
<path d="M160.331 85.8851L161.741 83.602L160.477 82.5818L159.068 85.7394L160.331 85.8851Z" fill="#7F3E3B"/>
<path d="M152.41 171.624C152.798 171.624 153.187 171.527 153.479 171.479C153.527 171.479 153.527 171.43 153.527 171.382C153.527 171.333 153.527 171.284 153.479 171.284C153.333 171.187 152.118 170.41 151.632 170.604C151.535 170.653 151.486 170.702 151.438 170.896C151.389 171.09 151.438 171.284 151.583 171.43C151.826 171.576 152.118 171.624 152.41 171.624ZM153.236 171.333C152.507 171.479 151.972 171.43 151.778 171.284C151.681 171.187 151.681 171.09 151.681 170.944C151.681 170.847 151.729 170.847 151.778 170.799C152.021 170.653 152.701 171.042 153.236 171.333Z" fill="#29C6F9"/>
<path d="M153.479 171.479C153.479 171.479 153.527 171.479 153.479 171.479C153.576 171.43 153.576 171.43 153.576 171.382C153.576 171.333 153.576 170.167 153.139 169.779C153.041 169.681 152.896 169.633 152.75 169.633C152.507 169.681 152.458 169.827 152.41 169.924C152.312 170.361 153.041 171.236 153.479 171.479C153.43 171.479 153.479 171.479 153.479 171.479ZM152.798 169.827C152.896 169.827 152.944 169.876 152.993 169.924C153.236 170.167 153.333 170.799 153.382 171.187C152.993 170.896 152.555 170.216 152.604 169.924C152.604 169.876 152.604 169.827 152.798 169.827C152.75 169.827 152.75 169.827 152.798 169.827Z" fill="#29C6F9"/>
<path d="M147.841 169.633C147.841 169.584 147.89 169.584 147.841 169.536C147.841 169.487 147.793 169.487 147.744 169.487C147.55 169.487 145.8 169.39 145.411 169.827C145.411 169.827 145.411 169.827 145.411 169.876C145.363 169.973 145.314 170.07 145.363 170.167C145.411 170.361 145.557 170.459 145.703 170.507C146.286 170.653 147.258 170.021 147.841 169.633ZM145.557 169.924C145.751 169.681 146.723 169.633 147.452 169.633C146.675 170.167 146.092 170.41 145.751 170.313C145.654 170.264 145.557 170.216 145.508 170.07C145.508 170.021 145.508 169.973 145.557 169.924Z" fill="#29C6F9"/>
<path d="M147.841 169.633C147.89 169.584 147.89 169.536 147.841 169.536C147.841 169.487 147.258 168.516 146.626 168.37C146.432 168.321 146.237 168.321 146.092 168.418C145.849 168.564 145.849 168.71 145.897 168.807C146.043 169.244 147.258 169.633 147.793 169.633H147.841ZM146.092 168.661C146.092 168.661 146.14 168.613 146.189 168.613C146.335 168.516 146.432 168.516 146.578 168.564C147.015 168.661 147.404 169.196 147.55 169.487C146.966 169.439 146.092 169.05 146.043 168.807C146.043 168.758 146.043 168.71 146.092 168.661Z" fill="#29C6F9"/>
<path d="M153.187 44.8857C152.701 47.3145 151.632 52.5609 153.333 54.164C153.333 54.164 152.653 56.5928 148.181 56.5928C143.224 56.5928 145.8 54.164 145.8 54.164C148.473 53.5325 148.424 51.5408 147.938 49.6463L153.187 44.8857Z" fill="#7F3E3B"/>
<path d="M144.974 39.2021C145.022 39.2021 145.022 39.2021 145.071 39.2021C145.168 39.1535 145.217 39.0564 145.168 38.9592C144.682 37.9877 143.807 37.8905 143.759 37.8905C143.662 37.8905 143.564 37.9391 143.564 38.0362C143.564 38.1334 143.613 38.2305 143.71 38.2305C143.759 38.2305 144.439 38.3277 144.828 39.1049C144.828 39.1535 144.877 39.2021 144.974 39.2021Z" fill="#263238"/>
<path d="M143.467 41.2909C143.467 41.2909 142.738 42.6025 142.058 43.234C142.447 43.6712 143.176 43.5741 143.176 43.5741L143.467 41.2909Z" fill="#630F0F"/>
<path d="M143.856 40.7566C143.807 41.0966 143.613 41.3395 143.419 41.2909C143.224 41.2423 143.078 40.9995 143.127 40.6594C143.176 40.3194 143.37 40.0765 143.564 40.1251C143.759 40.1736 143.905 40.4651 143.856 40.7566Z" fill="#263238"/>
<path d="M143.613 40.1736L142.884 39.8336C142.884 39.8336 143.224 40.5137 143.613 40.1736Z" fill="#263238"/>
<path d="M152.118 168.71L148.181 169.633L145.751 160.5L149.737 159.577L152.118 168.71Z" fill="#7F3E3B"/>
<path d="M158.193 171.382H154.159L154.451 161.958H158.533L158.193 171.382Z" fill="#7F3E3B"/>
<path d="M153.819 170.896H158.387C158.533 170.896 158.679 170.993 158.728 171.187L159.262 174.782C159.311 175.171 158.971 175.511 158.63 175.511C157.027 175.462 156.249 175.414 154.256 175.414C153.041 175.414 151.195 175.559 149.494 175.559C147.841 175.559 147.695 173.859 148.424 173.713C151.632 173.033 152.118 172.062 153.187 171.187C153.333 170.993 153.576 170.896 153.819 170.896Z" fill="#263238"/>
<path d="M147.793 169.001L151.924 167.107C152.069 167.058 152.264 167.107 152.312 167.204L154.305 170.264C154.499 170.604 154.354 171.042 154.013 171.187C152.555 171.819 151.826 172.062 149.98 172.888C148.862 173.422 146.578 174.588 145.022 175.316C143.516 175.997 142.69 174.539 143.273 174.102C145.897 172.159 146.626 170.75 147.209 169.487C147.404 169.293 147.598 169.099 147.793 169.001Z" fill="#263238"/>
<path opacity="0.2" d="M145.751 160.5L147.064 165.407L150.952 164.289L149.737 159.577L145.751 160.5Z" fill="black"/>
<path opacity="0.2" d="M158.533 161.958H154.451L154.305 166.815H158.387L158.533 161.958Z" fill="black"/>
<path d="M160.38 55.0869C162.081 55.4756 163.879 61.5478 163.879 61.5478L159.116 66.6484C159.116 66.6484 155.131 60.9162 155.957 58.8274C156.735 56.6414 158.339 54.6497 160.38 55.0869Z" fill="#263238"/>
<path opacity="0.4" d="M157.658 58.9732C156.784 58.1959 156.249 58.4388 155.812 59.0217C155.423 60.8191 157.707 64.6082 158.679 66.0655C159.116 64.3653 159.602 60.722 157.658 58.9732Z" fill="black"/>
<path d="M138.947 55.2327C138.947 55.2327 137.003 55.9128 140.891 79.8129C147.452 79.8129 154.256 79.8129 157.415 79.8129C157.124 73.1092 157.124 68.9316 160.331 55.1355C160.331 55.1355 156.881 54.3583 153.333 54.2125C150.563 54.0668 148.279 53.9697 145.849 54.2125C142.592 54.4554 138.947 55.2327 138.947 55.2327Z" fill="#263238"/>
<path opacity="0.4" d="M138.802 64.3653C138.899 65.5311 139.045 66.8427 139.239 68.3001C140.6 67.0856 141.718 63.6366 141.28 61.5963C140.357 62.325 139.482 63.3937 138.802 64.3653Z" fill="black"/>
<path d="M140.551 60.7705C139.628 63.0537 138.656 65.1911 137.538 67.3771C136.42 69.5145 135.254 71.6519 133.65 73.6922L133.358 74.0808L133.213 74.2751C133.164 74.3237 133.115 74.3722 133.018 74.4694C132.727 74.8094 132.386 75.1009 132.046 75.3438C131.366 75.8296 130.685 76.121 130.005 76.3639C128.644 76.8011 127.381 76.9954 126.117 77.044C123.59 77.1412 121.16 76.8983 118.73 76.4125L119.021 74.3722C120.139 74.3722 121.306 74.3722 122.423 74.2751C123.541 74.2265 124.659 74.0808 125.777 73.8865C126.846 73.6922 127.915 73.4493 128.741 73.0606C129.179 72.8663 129.519 72.6234 129.811 72.4291C129.956 72.332 130.054 72.1862 130.151 72.0891C130.151 72.0891 130.199 71.9919 130.248 71.9434L130.345 71.7976L130.588 71.4576C131.803 69.7088 132.824 67.62 133.844 65.5797C134.816 63.4909 135.788 61.3535 136.663 59.2646L140.551 60.7705Z" fill="#803E3C"/>
<path d="M138.947 55.2327C136.906 55.7184 134.428 61.2563 134.428 61.2563L138.607 67.4257C138.607 67.4257 144.196 60.3819 143.516 58.2445C142.884 56.0099 141.426 54.6012 138.947 55.2327Z" fill="#263238"/>
<path d="M120.188 74.6151L116.689 73.0121L116.348 76.5097C116.348 76.5097 119.264 77.3841 120.722 76.5097L120.188 74.6151Z" fill="#7F3E3B"/>
<path d="M114.599 72.6235L114.259 75.2952L116.348 76.4611L116.689 72.9635L114.599 72.6235Z" fill="#7F3E3B"/>
<path d="M154.937 40.9995C154.208 44.9828 153.965 46.683 151.681 48.4804C148.279 51.2007 143.564 49.4034 143.078 45.3229C142.641 41.631 143.953 35.7531 148.036 34.6358C152.118 33.5185 155.666 37.0161 154.937 40.9995Z" fill="#7F3E3B"/>
<path d="M146.237 41.8253C145.994 43.8655 145.946 49.1119 150.368 49.2576C155.812 49.4519 157.464 44.7885 156.978 42.9425C159.797 40.6108 160.234 36.676 157.027 33.6157C153.819 30.5553 146.821 32.2555 144.877 35.2187C142.398 38.9592 146.237 41.8253 146.237 41.8253Z" fill="#263238"/>
<path d="M151.681 34.8301C151.438 32.6927 151.632 31.2354 153.625 31.2354C155.617 31.2354 158.339 31.964 159.359 34.0043C160.38 36.0445 160.429 39.2506 157.658 38.9106C154.84 38.6191 152.021 37.4047 151.681 34.8301Z" fill="#29C6F9"/>
<path d="M154.791 34.3443C154.305 31.8183 156.589 24.6288 162.13 24.143C164.705 23.9487 165.872 26.6691 164.56 27.1548C166.99 27.1063 168.545 30.3124 166.261 30.7982C168.059 31.964 167.621 34.2958 165.046 35.4616C163.15 36.336 155.423 37.8419 154.791 34.3443Z" fill="#263238"/>
<path d="M160.672 37.0647C158.873 37.0647 157.027 36.8218 155.86 36.0445C155.18 35.5588 154.791 34.9758 154.694 34.1986C154.694 34.15 154.742 34.0529 154.791 34.0529C154.84 34.0529 154.937 34.1014 154.937 34.15C154.985 34.8301 155.326 35.413 155.957 35.8016C158.144 37.259 163.247 36.7732 164.851 36.2874C166.212 35.8502 167.135 34.9758 167.33 33.9557C167.476 33.227 167.184 32.4984 166.504 32.0126C166.455 31.964 166.455 31.9154 166.504 31.8183C166.552 31.7697 166.601 31.7697 166.698 31.8183C167.427 32.4012 167.767 33.1785 167.621 34.0043C167.427 35.073 166.455 36.0445 164.997 36.5303C164.171 36.8218 162.47 37.0647 160.672 37.0647Z" fill="#263238"/>
<path d="M144.974 41.2909C144.488 41.971 144.342 42.7968 144.439 43.4769C144.585 44.497 145.606 44.5456 146.335 43.9141C146.966 43.3312 147.695 42.0682 147.161 41.2423C146.626 40.4165 145.557 40.5137 144.974 41.2909Z" fill="#7F3E3B"/>
<path d="M145.265 79.7644C145.265 79.7644 147.647 107.696 150.077 123.436C152.069 136.163 153.625 165.844 153.625 165.844H159.165C159.165 165.844 161.158 137.037 160.137 124.456C157.61 92.6374 163.247 90.0628 157.415 79.7644H145.265Z" fill="#29C6F9"/>
<path opacity="0.4" d="M152.264 90.3057C150.028 92.5888 148.327 95.3092 147.015 98.2238C147.647 104.49 148.424 111.485 149.251 117.558C151.778 111.194 153.916 101.381 152.264 90.3057Z" fill="black"/>
<path d="M141.377 79.57C141.377 79.57 136.274 110.077 135.448 123.824C137.441 136.552 145.703 163.415 145.703 163.415L150.757 161.569C150.757 161.569 147.987 132.277 144.925 124.261C151.778 101.236 156.784 95.4549 155.326 79.7643C151.826 79.7643 141.377 79.57 141.377 79.57Z" fill="#29C6F9"/>
<path d="M145.022 164.775L151.826 162.929L151.438 160.209L144.148 162.152L145.022 164.775Z" fill="#263238"/>
<path d="M152.847 165.99H159.943L160.283 163.512L152.798 163.221L152.847 165.99Z" fill="#263238"/>
<path d="M157.658 78.7928L158.387 80.2501C158.436 80.3473 158.29 80.493 158.096 80.493H140.746C140.6 80.493 140.454 80.3958 140.454 80.3473L140.308 78.8899C140.308 78.7928 140.405 78.6956 140.6 78.6956H157.318C157.513 78.6956 157.658 78.7442 157.658 78.7928Z" fill="#29C6F9"/>
<path opacity="0.5" d="M157.658 78.7928L158.387 80.2501C158.436 80.3473 158.29 80.493 158.096 80.493H140.746C140.6 80.493 140.454 80.3958 140.454 80.3473L140.308 78.8899C140.308 78.7928 140.405 78.6956 140.6 78.6956H157.318C157.513 78.6956 157.658 78.7442 157.658 78.7928Z" fill="black"/>
<path d="M155.423 80.6873H155.86C155.957 80.6873 156.006 80.6387 156.006 80.5902L155.812 78.6471C155.812 78.5985 155.714 78.5499 155.617 78.5499H155.18C155.083 78.5499 155.034 78.5985 155.034 78.6471L155.228 80.5902C155.277 80.6387 155.326 80.6873 155.423 80.6873Z" fill="#29C6F9"/>
<path d="M149.396 66.5027C149.299 66.5027 149.202 66.4055 149.153 66.3084C147.55 60.4305 144.293 55.6213 142.69 54.8926C142.495 54.7955 142.349 54.7955 142.301 54.844C142.155 54.8926 142.058 54.844 141.961 54.6983C141.912 54.5526 141.961 54.4554 142.106 54.3583C142.349 54.2611 142.592 54.2611 142.933 54.4068C144.634 55.1841 147.938 59.9447 149.591 65.9683C150.806 65.9683 152.604 65.8226 153.041 65.774C153.576 65.0939 157.658 60.0418 156.152 54.4554C156.103 54.3097 156.2 54.2125 156.346 54.164C156.492 54.1154 156.589 54.2125 156.638 54.3583C158.339 60.5762 153.43 66.1626 153.382 66.2112C153.333 66.2598 153.284 66.3084 153.236 66.3084C153.187 66.3084 150.757 66.5027 149.396 66.5027Z" fill="#29C6F9"/>
<path d="M157.464 69.9517C154.791 64.9968 153.722 64.6567 153.236 63.0537C153.236 63.0537 153.673 61.8392 154.742 60.6248C154.402 60.5276 153.722 60.3819 153.284 60.3333C153.333 60.139 153.382 59.8961 153.43 59.7018C153.09 59.6047 152.312 59.7018 151.972 59.7504V59.2646C151.972 59.2646 150.611 58.9731 150.077 59.1675C150.125 59.4103 150.174 59.6047 150.223 59.8475C149.737 59.9447 149.008 60.0904 148.619 60.1876C149.639 61.3534 150.028 62.5679 150.125 62.9079C148.716 65.3368 143.127 81.1245 152.167 82.339C161.255 83.4562 160.088 74.9066 157.464 69.9517Z" fill="#29C6F9"/>
<path opacity="0.4" d="M157.464 69.9517C154.791 64.9968 153.722 64.6567 153.236 63.0537C153.236 63.0537 153.673 61.8392 154.742 60.6248C154.402 60.5276 153.722 60.3819 153.284 60.3333C153.333 60.139 153.382 59.8961 153.43 59.7018C153.09 59.6047 152.312 59.7018 151.972 59.7504V59.2646C151.972 59.2646 150.611 58.9731 150.077 59.1675C150.125 59.4103 150.174 59.6047 150.223 59.8475C149.737 59.9447 149.008 60.0904 148.619 60.1876C149.639 61.3534 150.028 62.5679 150.125 62.9079C148.716 65.3368 143.127 81.1245 152.167 82.339C161.255 83.4562 160.088 74.9066 157.464 69.9517Z" fill="white"/>
<path d="M149.834 62.4222C149.785 62.5193 149.785 63.0051 149.785 63.1994C149.785 63.3937 150.271 63.4909 150.806 63.5394C151.34 63.588 153.625 63.6852 153.527 63.4423C153.479 63.1994 153.625 62.8594 153.625 62.6165C153.625 62.4222 152.701 62.3736 151.972 62.4222C151.243 62.4707 149.98 62.1307 149.834 62.4222Z" fill="#29C6F9"/>
<path d="M144.536 80.6873H144.974C145.071 80.6873 145.12 80.6387 145.12 80.5902L144.925 78.6471C144.925 78.5985 144.828 78.5499 144.731 78.5499H144.342C144.245 78.5499 144.196 78.5985 144.196 78.6471L144.391 80.5902C144.391 80.6387 144.488 80.6873 144.536 80.6873Z" fill="#29C6F9"/>
</svg>
